<?xml version="1.0" encoding="UTF-8" standalone="no"?>
<!DOCTYPE svg PUBLIC "-//W3C//DTD SVG 1.1//EN" "http://www.w3.org/Graphics/SVG/1.1/DTD/svg11.dtd">
<svg width="100%" height="100%" viewBox="0 0 1450 1450" version="1.1" xmlns="http://www.w3.org/2000/svg" xmlns:xlink="http://www.w3.org/1999/xlink" xml:space="preserve" xmlns:serif="http://www.serif.com/" style="fill-rule:evenodd;clip-rule:evenodd;">
    <g transform="matrix(4.16667,0,0,4.16667,0,0)">
        <path d="M5.079,5.776L341.992,5.776L341.992,343.446L5.08,343.446L5.079,5.776Z" style="fill:none;fill-rule:nonzero;stroke:black;stroke-width:2px;"/>
        <path d="M282.734,40.554C282.734,32.178 289.7,25.389 298.294,25.389C302.42,25.389 306.378,26.986 309.295,29.83C312.213,32.674 313.853,36.532 313.853,40.554C313.853,48.93 306.887,55.719 298.293,55.719C289.7,55.719 282.734,48.929 282.734,40.554Z" style="fill:none;fill-rule:nonzero;stroke:black;stroke-width:2px;"/>
        <g transform="matrix(1,0,0,1,-84.3821,147.307)">
            <path d="M282.734,40.554C282.734,32.178 289.7,25.389 298.294,25.389C302.42,25.389 306.378,26.986 309.295,29.83C312.213,32.674 313.853,36.532 313.853,40.554C313.853,48.93 306.887,55.719 298.293,55.719C289.7,55.719 282.734,48.929 282.734,40.554Z" style="fill:none;fill-rule:nonzero;stroke:black;stroke-width:2px;"/>
        </g>
        <g transform="matrix(0.905906,0,0,0.905906,1.8487,5.29028)">
            <rect x="19.647" y="56.224" width="92.796" height="92.796" style="fill:none;stroke:black;stroke-width:2.76px;stroke-miterlimit:1.5;"/>
        </g>
        <g transform="matrix(0.905906,0,0,0.905906,1.8487,193.815)">
            <rect x="19.647" y="56.224" width="92.796" height="92.796" style="fill:none;stroke:black;stroke-width:2.76px;stroke-miterlimit:1.5;"/>
        </g>
        <g transform="matrix(0.354585,0,0,0.354585,-1.49683,60.1712)">
            <text x="80.657px" y="167.002px" style="font-family:'OstrichSans-Heavy', 'Ostrich Sans';font-weight:900;font-size:162.161px;">YUM</text>
        </g>
        <g transform="matrix(0.354585,0,0,0.354585,-0.881362,248.658)">
            <text x="80.657px" y="167.002px" style="font-family:'OstrichSans-Heavy', 'Ostrich Sans';font-weight:900;font-size:162.161px;">YUK</text>
        </g>
        <g transform="matrix(1,0,0,1,24.5797,-28.0882)">
            <circle cx="189.332" cy="215.95" r="113.328" style="fill:none;stroke:black;stroke-width:2.5px;stroke-miterlimit:1.5;"/>
        </g>
        <g id="_3-6" serif:id="3-6" transform="matrix(0.369313,0,0,0.369313,107.028,77.2241)">
            <path d="M287.072,117.468C279.941,120.875 273.435,125.323 266.567,129.142C260.151,132.71 253.405,135.722 245.371,136.528C236.875,137.379 226.875,136.43 217.18,136.66C206.66,136.909 196.51,138.564 188.613,144.542C182.527,149.15 179.285,157.132 177.759,166.219C175.685,178.569 176.678,192.968 176.109,201.87C174.82,222.013 173.948,243.561 166.31,262.445C161.754,273.71 155.535,283.844 150.378,294.354C144.976,305.362 140.722,316.772 140.36,330.127C139.765,352.087 147.828,364.478 158.113,375.439C167.646,385.599 179.282,394.387 186.872,409.48C193.058,421.781 194.54,435.37 196.314,448.881C198.197,463.218 200.396,477.469 207.916,490.261C214.993,502.301 227.21,510.349 241.341,515.063C261.958,521.94 286.622,521.71 304.317,517.087C322.304,512.387 340.39,502.678 356.035,492.769C398.24,466.036 437.962,415.138 438.493,362.794C438.592,352.984 435.869,343.775 433.028,334.634C430.385,326.133 427.632,317.696 427.467,308.787C427.333,301.537 429.666,294.543 431.744,287.56C434.058,279.786 436.07,272.027 435.061,264.062C434.148,256.862 430.051,250.883 425.93,244.914C422.464,239.895 418.947,234.896 418.514,228.676C417.747,217.656 422.8,206.36 427.577,194.083C432.729,180.842 437.655,166.567 436.266,150.613C434.771,133.445 421.7,110.356 404.56,95.109C392.85,84.691 379.265,77.993 366.313,78.794C352.159,79.668 337.135,87.006 323.083,95.474C309.622,103.585 297.063,112.695 287.072,117.468ZM289.99,123.576C300.135,118.729 312.908,109.508 326.577,101.272C339.654,93.391 353.558,86.364 366.73,85.55C378.066,84.85 389.811,91.048 400.061,100.166C415.861,114.222 428.144,135.374 429.522,151.2C430.815,166.05 426.064,179.304 421.269,191.628C416.098,204.915 410.931,217.219 411.761,229.146C412.281,236.608 416.202,242.739 420.359,248.76C423.86,253.83 427.57,258.797 428.345,264.913C429.236,271.943 427.298,278.768 425.256,285.629C422.979,293.28 420.552,300.969 420.699,308.913C420.876,318.464 423.731,327.53 426.563,336.643C429.197,345.116 431.816,353.633 431.724,362.726C431.216,412.874 392.848,461.438 352.413,487.05C337.338,496.598 319.937,506.009 302.606,510.538C285.994,514.878 262.839,515.098 243.483,508.641C230.965,504.465 220.021,497.497 213.751,486.831C206.702,474.839 204.791,461.439 203.026,448C201.152,433.736 199.45,419.424 192.92,406.439C186.53,393.735 177.506,385.202 168.999,376.838C157.225,365.263 146.485,354.024 147.127,330.31C147.461,317.991 151.472,307.49 156.455,297.336C161.682,286.683 167.967,276.402 172.586,264.983C180.492,245.436 181.53,223.153 182.864,202.302C183.422,193.572 182.402,179.45 184.435,167.34C185.647,160.119 187.863,153.601 192.699,149.939C199.491,144.798 208.293,143.641 217.341,143.427C227.213,143.193 237.395,144.131 246.046,143.263C255.061,142.359 262.658,139.062 269.857,135.059C276.604,131.307 282.985,126.923 289.99,123.576Z"/>
        </g>
    </g>
</svg>
