<?xml version="1.0" encoding="UTF-8" standalone="no"?>
<!DOCTYPE svg PUBLIC "-//W3C//DTD SVG 1.1//EN" "http://www.w3.org/Graphics/SVG/1.1/DTD/svg11.dtd">
<svg width="100%" height="100%" viewBox="0 0 600 600" version="1.1" xmlns="http://www.w3.org/2000/svg" xmlns:xlink="http://www.w3.org/1999/xlink" xml:space="preserve" xmlns:serif="http://www.serif.com/" style="fill-rule:evenodd;clip-rule:evenodd;stroke-linecap:round;stroke-linejoin:round;stroke-miterlimit:1.5;">
    <g transform="matrix(0.949957,0,0,0.949957,-10.2405,-20.0244)">
        <g id="Ebene1">
            <circle cx="326.584" cy="336.883" r="72.303" style="fill:none;stroke:black;stroke-width:5.26px;"/>
        </g>
    </g>
    <g transform="matrix(1.11243,0,0,1.11243,-72.0064,-51.6743)">
        <g id="Vect">
            <path id="_0-0" serif:id="0-0" d="M170.869,94.456C120.652,115.045 92.48,151.691 85.812,190.031C79.078,228.745 94.135,269.502 131.393,298.126C150.056,312.464 174.227,318.902 197.369,326.656C218.269,333.658 238.361,341.705 251.214,360.066C274.894,393.894 260.266,426.293 251.203,455.618C244.841,476.202 241.017,495.517 249.19,513.103C254.674,524.902 265.567,536.176 285.471,546.325C295.918,551.652 306.696,555.231 318.241,557.267C333.078,559.883 348.578,559.147 363.195,555.552C407.874,544.566 442.58,504.134 465.136,466.293C522.056,370.8 526.051,249.819 457.962,158.388C394.586,73.285 273.286,52.466 170.869,94.456ZM176.325,107.764C272.611,68.288 386.844,86.971 446.426,166.978C510.985,253.669 506.75,368.387 452.781,458.929C432.066,493.682 400.794,531.496 359.761,541.586C347.072,544.706 333.619,545.374 320.739,543.102C310.616,541.317 301.165,538.182 292.005,533.511C275.886,525.292 266.674,516.596 262.233,507.041C255.519,492.594 259.719,476.775 264.945,459.865C275.195,426.699 289.778,390.075 262.997,351.818C248.323,330.856 225.798,321.012 201.938,313.018C180.32,305.775 157.589,300.115 140.155,286.721C107.624,261.727 94.102,226.299 99.982,192.496C105.926,158.318 131.56,126.117 176.325,107.764Z"/>
        </g>
    </g>
</svg>
