<?xml version="1.0" encoding="UTF-8" standalone="no"?>
<!DOCTYPE svg PUBLIC "-//W3C//DTD SVG 1.1//EN" "http://www.w3.org/Graphics/SVG/1.1/DTD/svg11.dtd">
<svg width="100%" height="100%" viewBox="0 0 600 600" version="1.1" xmlns="http://www.w3.org/2000/svg" xmlns:xlink="http://www.w3.org/1999/xlink" xml:space="preserve" xmlns:serif="http://www.serif.com/" style="fill-rule:evenodd;clip-rule:evenodd;stroke-linecap:round;stroke-linejoin:round;stroke-miterlimit:1.5;">
    <g transform="matrix(0.949957,0,0,0.949957,-10.2405,-20.0244)">
        <g id="Ebene1">
            <circle cx="326.584" cy="336.883" r="72.303" style="fill:none;stroke:black;stroke-width:5.26px;"/>
        </g>
    </g>
    <g id="Vect">
        <path id="_0-1" serif:id="0-1" d="M256.776,81.429C225.009,82.701 198.283,108.195 175.496,131.331C136.88,170.537 133.732,202.018 118.771,252.134C107,291.56 92.632,330.932 82.909,370.933C76.865,395.797 74.851,433.593 85.451,462.725C93.083,483.7 107.067,500.278 129.772,506.017C155.865,512.614 181.078,507.777 206.162,500.694C229.328,494.153 252.366,485.654 276.053,484.345C302.391,482.89 327.936,490.243 353.437,496.611C380.832,503.451 408.175,509.181 436.186,503.996C474.477,496.908 492.55,474.754 512.026,443.275C532.89,409.554 544.079,379.338 544.781,348.863C545.485,318.29 535.675,287.328 513.764,252.198C497.662,226.382 472.235,215.74 445.054,207.369C420.716,199.874 394.923,194.328 375.132,177.945C353.912,160.377 342.38,136.519 328.065,117.483C311.899,95.985 292.659,79.991 256.776,81.429ZM257.417,97.416C286.627,96.246 302.118,109.6 315.278,127.099C330.289,147.061 342.677,171.848 364.929,190.269C386.342,207.996 414.013,214.551 440.344,222.66C463.832,229.893 486.275,238.358 500.188,260.665C520.124,292.628 529.426,320.677 528.785,348.495C528.143,376.412 517.532,403.966 498.42,434.856C481.533,462.151 466.475,482.117 433.273,488.263C407.549,493.025 382.473,487.369 357.313,481.087C330.259,474.332 303.112,466.826 275.171,468.37C250.327,469.742 226.112,478.436 201.814,485.297C179.435,491.616 156.974,496.391 133.694,490.505C116.472,486.152 106.275,473.163 100.486,457.254C90.955,431.06 93.022,397.069 98.456,374.712C108.114,334.978 122.41,295.875 134.102,256.711C148.202,209.483 150.504,179.506 186.895,142.558C197.281,132.013 208.44,120.74 220.646,111.987C231.912,103.908 244.053,97.951 257.417,97.416Z"/>
    </g>
</svg>
