<?xml version="1.0" encoding="UTF-8" standalone="no"?>
<!DOCTYPE svg PUBLIC "-//W3C//DTD SVG 1.1//EN" "http://www.w3.org/Graphics/SVG/1.1/DTD/svg11.dtd">
<svg width="100%" height="100%" viewBox="0 0 600 600" version="1.1" xmlns="http://www.w3.org/2000/svg" xmlns:xlink="http://www.w3.org/1999/xlink" xml:space="preserve" xmlns:serif="http://www.serif.com/" style="fill-rule:evenodd;clip-rule:evenodd;stroke-linecap:round;stroke-linejoin:round;stroke-miterlimit:1.5;">
    <g transform="matrix(0.949957,0,0,0.949957,-10.2405,-20.0244)">
        <g id="Ebene1">
            <circle cx="326.584" cy="336.883" r="72.303" style="fill:none;stroke:black;stroke-width:5.26px;"/>
        </g>
    </g>
    <g transform="matrix(1.09017,0,0,1.09017,-27.0971,-28.4599)">
        <g id="Vect">
            <path id="_0-2" serif:id="0-2" d="M158.809,98.817C142.705,98.5 126.271,110.329 115.717,120.682C72.353,163.219 67.425,231.149 86.611,286.513C90.262,297.047 97.286,306.618 103.906,316.26C109.498,324.404 114.859,332.565 116.22,341.912C117.125,348.126 115.564,354.044 113.209,359.858C110.428,366.724 106.523,373.43 103.162,380.163C95.07,396.376 90.222,412.69 102.948,430.732C108.852,439.103 117.496,444.489 127.342,447.964C140.391,452.57 155.619,453.743 167.886,455.357C211.809,461.136 262.09,460.642 303.759,476.64C328.97,486.32 347.983,506.407 368.268,523.206C390.635,541.73 414.402,556.458 447.238,553.419C459.317,552.301 471.551,549.427 482.746,544.734C497.66,538.483 507.507,528.134 515.475,514.309C535.566,479.446 521.172,447.029 500.216,414.926C490.597,400.192 479.697,385.498 470.972,370.553C462.796,356.547 456.503,342.364 455.607,327.633C453.478,292.626 464.242,255.554 468.661,219.222C473.375,180.453 471.104,142.568 442.247,108.427C425.783,88.949 409.896,80.361 394.619,78.067C379.332,75.772 364.435,79.843 349.684,86.669C336.174,92.92 322.755,101.486 309.14,108.695C296.617,115.326 283.957,120.844 270.788,121.553C253.453,122.487 232.477,117.008 212.802,111.377C191.593,105.306 171.778,99.072 158.809,98.817ZM158.52,113.491C170.605,113.729 189.001,119.83 208.763,125.487C230.059,131.582 252.814,137.219 271.577,136.209C295.341,134.929 317.92,120.533 340.295,108.048C357.971,98.184 375.465,89.424 393.866,92.82C405.899,95.04 418.099,102.594 431.038,117.901C456.927,148.53 458.321,182.669 454.091,217.45C449.566,254.666 438.777,292.666 440.958,328.524C442.953,361.337 467.849,392.193 487.926,422.949C505.711,450.193 519.809,477.394 502.759,506.98C496.464,517.903 488.854,526.26 477.072,531.199C467.241,535.32 456.493,537.823 445.885,538.805C417.394,541.442 397.037,527.976 377.629,511.903C356.139,494.105 335.729,473.194 309.019,462.939C266.309,446.541 214.821,446.729 169.8,440.806C160.226,439.546 148.71,438.663 138.067,435.896C128.852,433.5 120.229,429.769 114.941,422.273C105.987,409.578 110.6,398.125 116.294,386.717C123.854,371.569 133.147,356.307 130.743,339.797C129.065,328.271 122.901,317.996 116.005,307.953C110.138,299.408 103.714,291.043 100.479,281.707C83.078,231.497 86.667,169.737 125.994,131.16C134.079,123.229 146.184,113.248 158.52,113.491Z"/>
        </g>
    </g>
</svg>
