<?xml version="1.0" encoding="UTF-8" standalone="no"?>
<!DOCTYPE svg PUBLIC "-//W3C//DTD SVG 1.1//EN" "http://www.w3.org/Graphics/SVG/1.1/DTD/svg11.dtd">
<svg width="100%" height="100%" viewBox="0 0 600 600" version="1.1" xmlns="http://www.w3.org/2000/svg" xmlns:xlink="http://www.w3.org/1999/xlink" xml:space="preserve" xmlns:serif="http://www.serif.com/" style="fill-rule:evenodd;clip-rule:evenodd;stroke-linecap:round;stroke-linejoin:round;stroke-miterlimit:1.5;">
    <g transform="matrix(0.949957,0,0,0.949957,-10.2405,-20.0244)">
        <g id="Ebene1">
            <circle cx="326.584" cy="336.883" r="72.303" style="fill:none;stroke:black;stroke-width:5.26px;"/>
        </g>
    </g>
    <g id="Vect" transform="matrix(1.16472,0,0,1.16472,-57.6529,-37.6902)">
        <path id="_0-3" serif:id="0-3" d="M275.527,80.695C231.987,85.108 184.357,120.256 168.878,167.457C158.848,198.044 158.104,229.685 144.771,259.601C135.278,280.9 121.567,303.779 113.206,327.354C104.282,352.515 101.372,378.43 114.196,404.188C129.53,434.985 162.408,441.851 198.372,443.143C230.662,444.302 265.369,440.934 288.652,451.996C302.704,458.673 314.053,471.129 326.385,481.285C340.585,492.98 355.94,501.812 376.219,499.463C430.986,493.117 468.057,456.268 488.74,409.108C509.019,362.867 513.409,306.737 503.539,260.957C494.223,217.753 479.022,170.504 448.152,137.75C409.378,96.608 321.694,76.016 275.527,80.695ZM276.913,94.362C319.996,89.995 401.97,108.777 438.155,147.172C467.343,178.141 481.302,223.002 490.11,263.852C499.42,307.033 495.287,359.976 476.159,403.59C457.435,446.285 424.219,480.072 374.638,485.817C358.46,487.691 346.447,480.011 335.118,470.681C321.922,459.813 309.585,446.733 294.547,439.588C269.851,427.854 233.116,430.644 198.865,429.414C168.284,428.316 139.532,424.253 126.494,398.065C115.459,375.901 118.474,353.597 126.153,331.946C134.394,308.71 147.962,286.185 157.318,265.193C170.847,234.838 171.754,202.773 181.931,171.738C195.724,129.677 238.115,98.294 276.913,94.362Z"/>
    </g>
</svg>
