<?xml version="1.0" encoding="UTF-8" standalone="no"?>
<!DOCTYPE svg PUBLIC "-//W3C//DTD SVG 1.1//EN" "http://www.w3.org/Graphics/SVG/1.1/DTD/svg11.dtd">
<svg width="100%" height="100%" viewBox="0 0 600 600" version="1.1" xmlns="http://www.w3.org/2000/svg" xmlns:xlink="http://www.w3.org/1999/xlink" xml:space="preserve" xmlns:serif="http://www.serif.com/" style="fill-rule:evenodd;clip-rule:evenodd;stroke-linecap:round;stroke-linejoin:round;stroke-miterlimit:1.5;">
    <g transform="matrix(0.949957,0,0,0.949957,-10.2405,-20.0244)">
        <g id="Ebene1">
            <circle cx="326.584" cy="336.883" r="72.303" style="fill:none;stroke:black;stroke-width:5.26px;"/>
        </g>
    </g>
    <g transform="matrix(1.15152,0,0,1.15152,-58.6199,-57.1673)">
        <g id="Vect">
            <path id="_0-4" serif:id="0-4" d="M296.586,104.141C280.003,101.325 260.52,91.26 240.48,90.691C209.418,89.811 187.035,97.23 170.762,109.844C154.422,122.51 144.145,140.536 137.742,161.434C125.66,200.863 127.557,250.796 125.166,291.191C124.113,308.976 116.703,334.323 113.759,357.629C111.598,374.74 111.921,390.824 117.608,402.794C127.428,423.462 144.481,425.149 163.762,425.462C178.568,425.703 194.94,425.008 208.021,439.379C220.307,452.876 225.847,472.275 234.033,489.131C243.471,508.568 256.003,524.876 281.482,529.18C307.717,533.611 327.334,531.93 342.944,525.972C361.428,518.917 374.487,505.846 386.053,488.849C396.852,472.98 406.387,453.587 418.531,432.87C451.724,376.242 482.577,321.379 500.79,257.846C511.674,219.879 517.239,173.882 494.785,138.689C488.793,129.298 481.066,121.189 473.128,113.437C443.89,84.881 418.355,85.559 390.854,92.732C374.178,97.082 356.726,104.051 336.964,107.401C326.326,109.204 309.899,106.402 296.586,104.141ZM294.26,117.839C309.095,120.359 327.431,123.11 339.286,121.1C359.476,117.678 377.324,110.621 394.361,106.177C417.43,100.16 438.893,99.423 463.42,123.377C470.6,130.389 477.652,137.668 483.072,146.162C503.386,178.003 497.281,219.667 487.433,254.017C469.547,316.408 439.14,370.234 406.544,425.844C394.576,446.261 385.208,465.392 374.566,481.032C364.691,495.544 353.77,506.967 337.989,512.991C324.23,518.243 306.922,519.385 283.796,515.479C263.529,512.056 254.04,498.523 246.532,483.062C237.771,465.022 231.444,444.471 218.296,430.026C202.124,412.259 182.293,411.867 163.988,411.57C150.151,411.345 137.205,411.663 130.158,396.831C125.446,386.915 125.754,373.546 127.544,359.37C130.528,335.745 137.969,310.04 139.036,292.012C141.367,252.637 139.25,203.939 151.027,165.504C156.553,147.47 165.173,131.756 179.274,120.826C193.442,109.844 213.044,103.814 240.087,104.58C259.458,105.13 278.229,115.117 294.26,117.839Z"/>
        </g>
    </g>
</svg>
