<?xml version="1.0" encoding="UTF-8" standalone="no"?>
<!DOCTYPE svg PUBLIC "-//W3C//DTD SVG 1.1//EN" "http://www.w3.org/Graphics/SVG/1.1/DTD/svg11.dtd">
<svg width="100%" height="100%" viewBox="0 0 600 600" version="1.1" xmlns="http://www.w3.org/2000/svg" xmlns:xlink="http://www.w3.org/1999/xlink" xml:space="preserve" xmlns:serif="http://www.serif.com/" style="fill-rule:evenodd;clip-rule:evenodd;stroke-linecap:round;stroke-linejoin:round;stroke-miterlimit:1.5;">
    <g transform="matrix(0.949957,0,0,0.949957,-10.2405,-20.0244)">
        <g id="Ebene1">
            <circle cx="326.584" cy="336.883" r="72.303" style="fill:none;stroke:black;stroke-width:5.26px;"/>
        </g>
    </g>
    <g transform="matrix(1.10263,0,0,1.04242,0.363634,-6.5316)">
        <g id="Vect">
            <path id="_0-5" serif:id="0-5" d="M245.975,41.752C223.219,47.202 198.556,54.951 180.516,67.122C166.548,76.545 154.951,88.917 144.565,102.076C93.152,167.216 116.471,242.989 144.032,312.417C151.477,331.17 161.178,350.186 164.033,370.352C168.369,400.976 155.482,444.824 154.466,482.897C153.906,503.907 156.844,523.251 166.692,538.439C176.65,553.796 193.671,565.289 222.165,569.449C234.733,571.284 248.596,570.155 260.854,567.095C292.075,559.302 301.451,539.366 305.271,515.513C307.511,501.529 307.621,486.051 309.892,471.271C313.879,445.329 323.607,419.087 335.935,395.95C354.133,361.799 375.405,330.629 400.026,300.843C424.08,271.743 450.527,248.344 465.96,212.781C495.246,145.299 469.623,75.738 402.222,46.517C381.651,37.599 359.155,31.12 336.72,29.574C305.746,27.439 271.868,35.551 245.975,41.752ZM249.179,56.722C273.896,50.803 306.21,42.852 335.776,44.89C356.654,46.33 377.575,52.42 396.718,60.719C455.799,86.332 478.443,147.226 452.773,206.378C437.942,240.552 412.216,262.777 389.102,290.74C363.818,321.328 341.982,353.343 323.294,388.414C310.139,413.101 299.824,441.127 295.569,468.809C293.303,483.554 293.199,498.997 290.964,512.95C288.073,531.003 281.151,546.258 257.521,552.157C246.947,554.796 234.991,555.827 224.149,554.244C200.969,550.86 186.759,542.25 178.658,529.757C170.448,517.095 168.504,500.846 168.971,483.33C170.011,444.354 182.822,399.43 178.383,368.079C175.352,346.671 165.314,326.382 157.412,306.475C131.917,242.252 108.146,172.169 155.704,111.913C165.145,99.951 175.622,88.629 188.319,80.062C205.071,68.76 228.048,61.783 249.179,56.722Z"/>
        </g>
    </g>
</svg>
