<?xml version="1.0" encoding="UTF-8" standalone="no"?>
<!DOCTYPE svg PUBLIC "-//W3C//DTD SVG 1.1//EN" "http://www.w3.org/Graphics/SVG/1.1/DTD/svg11.dtd">
<svg width="100%" height="100%" viewBox="0 0 600 600" version="1.1" xmlns="http://www.w3.org/2000/svg" xmlns:xlink="http://www.w3.org/1999/xlink" xml:space="preserve" xmlns:serif="http://www.serif.com/" style="fill-rule:evenodd;clip-rule:evenodd;stroke-linecap:round;stroke-linejoin:round;stroke-miterlimit:1.5;">
    <g transform="matrix(0.949957,0,0,0.949957,-10.2405,-20.0244)">
        <g id="Ebene1">
            <circle cx="326.584" cy="336.883" r="72.303" style="fill:none;stroke:black;stroke-width:5.26px;"/>
        </g>
    </g>
    <g transform="matrix(1.11598,0,0,1.11598,-35.0654,-35.2987)">
        <g id="Vect">
            <path id="_0-6" serif:id="0-6" d="M115.572,225.657C82.398,244.243 64.547,285.906 57.24,323.693C53.366,343.729 49.069,366.786 60.05,385.457C71.334,404.643 85.812,409.556 100.803,412.667C112.717,415.14 125.107,415.904 135.319,426.004C138.189,428.842 140.241,435.858 142.922,444.038C147.87,459.131 153.615,477.859 162.419,489.339C181.115,513.715 217.084,530.166 255.102,537.157C292.824,544.094 332.384,541.752 358.352,529.789C388.55,515.878 407.21,493.941 421.437,468.517C435.032,444.223 444.493,416.688 456.713,390.387C467.738,366.661 481.489,344.342 495.898,322.556C508.196,303.962 523.182,286.863 529.536,265.048C533.45,251.61 533.182,238.718 532.009,225.828C530.945,214.143 529.103,202.469 529.71,190.32C530.589,172.748 542.022,154.825 547.825,137.55C551.995,125.135 553.518,113.025 548.999,101.546C545.971,93.854 540.222,86.333 530.294,79.284C524.018,74.829 517,71.782 509.74,69.33C496.585,64.886 486.124,69.429 477.78,77.768C470.826,84.717 465.486,94.544 461.343,102.594C453.516,117.797 446.122,134.283 436.44,148.696C427.388,162.169 416.316,173.824 400.543,180.339C366.031,194.596 325.397,190.597 288.912,191.895C230.65,193.968 153.781,204.25 115.572,225.657ZM122.58,238.165C159.334,217.573 233.378,208.218 289.422,206.223C327.549,204.866 369.952,208.488 406.017,193.59C424.525,185.945 437.72,172.5 448.34,156.691C458.33,141.821 466.014,124.842 474.09,109.156C477.618,102.303 481.995,93.825 487.915,87.909C492.445,83.382 498.01,80.5 505.151,82.913C511.087,84.918 516.863,87.332 521.994,90.975C529.133,96.043 533.481,101.267 535.659,106.798C538.948,115.155 537.27,123.946 534.234,132.984C528.027,151.461 516.33,170.81 515.391,189.604C514.749,202.441 516.607,214.781 517.731,227.128C518.745,238.269 519.154,249.424 515.771,261.038C509.825,281.453 495.448,297.247 483.94,314.646C469.137,337.028 455.037,359.971 443.711,384.346C431.644,410.316 422.35,437.527 408.926,461.516C396.133,484.376 379.507,504.259 352.353,516.767C328.554,527.731 292.266,529.414 257.695,523.057C223.42,516.753 190.651,502.59 173.796,480.614C165.848,470.251 161.012,453.197 156.546,439.572C152.951,428.602 149.25,419.616 145.4,415.81C135.211,405.733 123.52,402.541 111.601,400.181C97.531,397.394 82.971,396.15 72.408,378.189C63.21,362.55 68.072,343.196 71.317,326.415C77.854,292.609 92.901,254.793 122.58,238.165Z"/>
        </g>
    </g>
</svg>
