<?xml version="1.0" encoding="UTF-8" standalone="no"?>
<!DOCTYPE svg PUBLIC "-//W3C//DTD SVG 1.1//EN" "http://www.w3.org/Graphics/SVG/1.1/DTD/svg11.dtd">
<svg width="100%" height="100%" viewBox="0 0 600 600" version="1.1" xmlns="http://www.w3.org/2000/svg" xmlns:xlink="http://www.w3.org/1999/xlink" xml:space="preserve" xmlns:serif="http://www.serif.com/" style="fill-rule:evenodd;clip-rule:evenodd;stroke-linecap:round;stroke-linejoin:round;stroke-miterlimit:1.5;">
    <g transform="matrix(0.949957,0,0,0.949957,-10.2405,-20.0244)">
        <g id="Ebene1">
            <circle cx="326.584" cy="336.883" r="72.303" style="fill:none;stroke:black;stroke-width:5.26px;"/>
        </g>
    </g>
    <g transform="matrix(1.16652,0,0,1.15781,-81.1489,-72.6604)">
        <g id="Vect">
            <path id="_1-0" serif:id="1-0" d="M107.73,306.159C93.976,331.85 83.165,365.883 80.496,395.042C78.607,415.683 80.951,433.967 88.409,445.856C95.13,456.569 105.433,464.813 117.237,471.517C133.59,480.803 152.864,487.131 168.05,493.966C237.2,525.092 310.587,543.76 386.482,528.801C415.965,522.99 450.922,512.543 468.984,486.733C488.823,458.384 487.817,431.047 482.585,404.135C477.844,379.75 469.255,355.824 472.857,331.834C475.327,315.388 483.511,299.951 491.501,285.565C506.887,257.859 525.968,204.398 524.316,160.251C523.138,128.761 511.535,102.005 482.765,90.456C469.635,85.185 456.459,84.51 443.184,84.759C431.184,84.984 419.107,85.997 406.934,84.17C394.784,82.347 384.632,78.285 374.322,75.707C362.682,72.795 350.872,71.594 336.477,76.074C312.439,83.554 298.148,101.637 290.376,123.403C283.01,144.034 281.602,168.001 282.943,188.475C283.585,198.283 285.49,209.591 285.087,220.293C284.747,229.307 282.78,237.925 275.669,244.134C267.946,250.877 261.637,253.557 255.888,252.878C250.139,252.198 245.316,248.343 240.626,243.523C232.841,235.52 225.735,224.74 217.935,216.045C197.173,192.905 162.313,180.116 132.318,192.104C119.623,197.178 112.036,203.965 107.614,211.599C101.125,222.802 101.485,236.247 104.126,250.395C106.034,260.619 109.064,271.24 110.454,281.456C111.652,290.266 111.695,298.752 107.73,306.159ZM119.802,312.719C125.132,302.762 125.654,291.423 124.043,279.58C122.623,269.143 119.555,258.286 117.606,247.841C115.617,237.186 114.573,227.001 119.46,218.564C122.622,213.106 128.297,208.578 137.375,204.95C162.096,195.069 190.649,206.241 207.76,225.312C215.682,234.142 222.924,245.069 230.831,253.196C237.911,260.474 245.61,265.577 254.291,266.603C262.973,267.629 272.989,264.761 284.652,254.577C294.806,245.71 298.308,233.69 298.793,220.818C299.215,209.635 297.3,197.814 296.629,187.565C295.403,168.855 296.55,146.935 303.282,128.081C309.609,110.364 320.958,95.367 340.525,89.278C354.609,84.895 365.652,87.448 377.07,90.775C385.777,93.312 394.678,96.302 404.913,97.838C417.851,99.78 430.685,98.815 443.439,98.576C454.916,98.361 466.337,98.737 477.688,103.294C501.147,112.711 509.649,135.095 510.61,160.772C512.167,202.373 494.03,252.709 479.531,278.818C470.751,294.627 462.009,311.694 459.296,329.767C455.462,355.301 464.078,380.837 469.124,406.791C473.679,430.217 475.043,454.093 457.774,478.77C441.695,501.745 410.094,510.066 383.849,515.239C310.793,529.638 240.208,511.31 173.644,481.349C161.196,475.746 145.941,470.518 131.893,463.642C118.974,457.318 107.023,449.662 100.004,438.473C93.831,428.633 92.59,413.395 94.154,396.311C96.664,368.885 106.865,336.883 119.802,312.719Z"/>
        </g>
    </g>
</svg>
