<?xml version="1.0" encoding="UTF-8" standalone="no"?>
<!DOCTYPE svg PUBLIC "-//W3C//DTD SVG 1.1//EN" "http://www.w3.org/Graphics/SVG/1.1/DTD/svg11.dtd">
<svg width="100%" height="100%" viewBox="0 0 600 600" version="1.1" xmlns="http://www.w3.org/2000/svg" xmlns:xlink="http://www.w3.org/1999/xlink" xml:space="preserve" xmlns:serif="http://www.serif.com/" style="fill-rule:evenodd;clip-rule:evenodd;stroke-linecap:round;stroke-linejoin:round;stroke-miterlimit:1.5;">
    <g transform="matrix(0.949957,0,0,0.949957,-10.2405,-20.0244)">
        <g id="Ebene1">
            <circle cx="326.584" cy="336.883" r="72.303" style="fill:none;stroke:black;stroke-width:5.26px;"/>
        </g>
    </g>
    <g transform="matrix(1.12338,0,0,1.12338,-47.4505,-63.6635)">
        <g id="Vect">
            <path id="_1-1" serif:id="1-1" d="M314.508,222.888C308.732,228.291 300.623,230.646 292.046,231.59C277.524,233.189 261.602,230.588 250.725,228.517C220.706,222.801 176.902,213.98 141.527,221.471C116.173,226.839 94.972,240.267 84.726,267.751C73.374,298.203 79.129,320.564 90.747,341.079C101.378,359.849 117.375,376.92 128.386,398.032C135.615,411.892 132.93,424.13 131.439,436.081C129.559,451.144 129.02,465.817 142.266,482.007C152.218,494.172 172.542,499.573 186.88,503.799C228.881,516.178 273.819,521.486 317.251,524.915C334.708,526.294 352.809,527.013 370.356,525.885C393.98,524.366 421.018,521.551 440.116,505.949C452.112,496.149 460.39,481.787 466.321,465.744C474.641,443.238 478.372,417.404 482.653,397.908C494.388,344.467 510.249,292.743 523.98,239.855C530.611,214.313 542.51,185.911 539.416,158.875C532.161,95.474 478.7,51.387 413.971,72.737C378.672,84.38 359.874,116.529 346.675,149.626C339.244,168.262 333.553,187.082 327.191,201.955C323.391,210.839 319.475,218.243 314.508,222.888ZM324.237,233.29C330.391,227.534 335.577,218.565 340.286,207.556C346.688,192.59 352.427,173.655 359.905,154.902C371.556,125.684 387.27,96.542 418.432,86.263C473.769,68.011 519.063,106.293 525.266,160.495C528.166,185.834 516.409,212.336 510.194,236.276C496.418,289.339 480.515,341.236 468.742,394.853C464.581,413.802 461.048,438.932 452.962,460.805C447.955,474.349 441.232,486.646 431.105,494.919C414.285,508.66 390.248,510.334 369.442,511.672C352.567,512.757 335.16,512.042 318.372,510.717C275.911,507.364 231.968,502.239 190.907,490.137C184.526,488.257 176.75,486.251 169.467,483.346C163.141,480.823 157.137,477.691 153.289,472.988C143.188,460.642 144.139,449.331 145.572,437.845C147.393,423.247 149.843,408.375 141.014,391.446C132.046,374.251 119.876,359.658 109.811,344.733C96.147,324.473 86.588,303.533 98.072,272.726C108.594,244.501 133.652,235.01 161.3,233.146C191.182,231.13 224.181,237.962 248.061,242.508C260.047,244.79 277.602,247.51 293.605,245.747C305.379,244.451 316.307,240.707 324.237,233.29Z"/>
        </g>
    </g>
</svg>
