<?xml version="1.0" encoding="UTF-8" standalone="no"?>
<!DOCTYPE svg PUBLIC "-//W3C//DTD SVG 1.1//EN" "http://www.w3.org/Graphics/SVG/1.1/DTD/svg11.dtd">
<svg width="100%" height="100%" viewBox="0 0 600 600" version="1.1" xmlns="http://www.w3.org/2000/svg" xmlns:xlink="http://www.w3.org/1999/xlink" xml:space="preserve" xmlns:serif="http://www.serif.com/" style="fill-rule:evenodd;clip-rule:evenodd;stroke-linecap:round;stroke-linejoin:round;stroke-miterlimit:1.5;">
    <g transform="matrix(0.949957,0,0,0.949957,-10.2405,-20.0244)">
        <g id="Ebene1">
            <circle cx="326.584" cy="336.883" r="72.303" style="fill:none;stroke:black;stroke-width:5.26px;"/>
        </g>
    </g>
    <g transform="matrix(1.12224,0,0,1.12224,-38.1811,-36.6105)">
        <g id="Vect">
            <path id="_1-2" serif:id="1-2" d="M164.389,167.836C140.212,166.318 122.968,185.017 112.317,212.486C97.888,249.697 95.02,302.682 97.428,330.439C98.946,347.931 99.759,371.788 105.908,392.091C110.401,406.926 117.747,419.885 129.53,428.019C140.389,435.515 153.052,438.15 165.504,441.115C175.856,443.58 186.087,446.236 194.191,454.183C201.401,461.253 206.019,470.246 210.431,479.406C215.408,489.738 220.101,500.298 226.875,509.306C251.801,542.451 297.62,547.863 335.473,540.889C393.371,530.222 403.238,489.868 421.814,443.008C441.255,393.965 459.523,344.555 480.067,295.925C491.889,267.94 517.728,233.152 524.605,207.375C534.034,172.038 524.384,138.946 494.497,116.928C463.632,94.189 399.368,73.139 363.417,62.597C338.643,55.333 311.025,50.21 287.678,65.015C263.234,80.516 245.658,107.971 226.71,131.228C209.76,152.034 191.785,169.556 164.389,167.836ZM163.496,182.065C195.804,184.094 217.774,164.77 237.764,140.233C255.754,118.151 272.104,91.773 295.313,77.055C315.061,64.532 338.45,70.134 359.405,76.278C394.102,86.453 456.252,106.46 486.041,128.406C510.893,146.715 518.67,174.315 510.83,203.699C504.088,228.966 478.522,262.945 466.933,290.377C446.348,339.105 428.04,388.612 408.56,437.754C391.922,479.726 384.749,517.314 332.89,526.868C300.036,532.921 259.904,529.505 238.27,500.737C232.049,492.464 227.846,482.708 223.276,473.219C218.142,462.56 212.563,452.23 204.173,444.003C194.112,434.137 181.658,430.306 168.807,427.246C158.058,424.686 147.003,422.757 137.63,416.286C128.421,409.929 123.065,399.553 119.553,387.959C113.696,368.618 113.078,345.87 111.632,329.206C109.355,302.955 111.964,252.833 125.61,217.64C133.679,196.828 145.178,180.915 163.496,182.065Z"/>
        </g>
    </g>
</svg>
