<?xml version="1.0" encoding="UTF-8" standalone="no"?>
<!DOCTYPE svg PUBLIC "-//W3C//DTD SVG 1.1//EN" "http://www.w3.org/Graphics/SVG/1.1/DTD/svg11.dtd">
<svg width="100%" height="100%" viewBox="0 0 600 600" version="1.1" xmlns="http://www.w3.org/2000/svg" xmlns:xlink="http://www.w3.org/1999/xlink" xml:space="preserve" xmlns:serif="http://www.serif.com/" style="fill-rule:evenodd;clip-rule:evenodd;stroke-linecap:round;stroke-linejoin:round;stroke-miterlimit:1.5;">
    <g transform="matrix(0.949957,0,0,0.949957,-10.2405,-20.0244)">
        <g id="Ebene1">
            <circle cx="326.584" cy="336.883" r="72.303" style="fill:none;stroke:black;stroke-width:5.26px;"/>
        </g>
    </g>
    <g transform="matrix(1.20454,0,0,1.20454,-53.4634,-59.387)">
        <g id="Vect">
            <path id="_1-3" serif:id="1-3" d="M270.217,81.919C187.348,98.948 135.082,173.997 119.067,264.247C112.18,303.056 109.05,343.068 119.044,381.669C127.895,415.86 155.235,460.579 189.882,488.868C213.767,508.369 241.106,519.997 268.205,516.188C282.217,514.219 293.771,507.134 305.029,499.525C314.822,492.905 324.353,485.843 335.781,482.897C347.471,479.885 358.539,484.587 369.85,487.093C400.825,493.957 430.528,482.98 448.673,456.736C475.235,418.319 474.935,363.458 473.825,318.977C471.382,221.157 450.427,108.278 337.805,85.352C316.515,81.018 292.314,77.378 270.217,81.919ZM272.891,94.93C293.252,90.746 315.538,94.375 335.155,98.368C387.33,108.989 417.943,140.659 435.834,180.958C454.222,222.377 459.383,272.732 460.546,319.309C461.592,361.193 462.758,413.008 437.747,449.182C422.787,470.82 398.263,479.784 372.724,474.125C359.39,471.17 346.246,466.483 332.466,470.035C319.563,473.36 308.648,481.046 297.591,488.52C287.998,495.004 278.296,501.356 266.356,503.034C242.726,506.356 219.11,495.584 198.283,478.579C165.864,452.11 140.185,410.332 131.903,378.34C122.39,341.596 125.59,303.51 132.146,266.567C147.156,181.984 195.224,110.89 272.891,94.93Z"/>
        </g>
    </g>
</svg>
