<?xml version="1.0" encoding="UTF-8" standalone="no"?>
<!DOCTYPE svg PUBLIC "-//W3C//DTD SVG 1.1//EN" "http://www.w3.org/Graphics/SVG/1.1/DTD/svg11.dtd">
<svg width="100%" height="100%" viewBox="0 0 9 9" version="1.1" xmlns="http://www.w3.org/2000/svg" xmlns:xlink="http://www.w3.org/1999/xlink" xml:space="preserve" xmlns:serif="http://www.serif.com/" style="fill-rule:evenodd;clip-rule:evenodd;stroke-linecap:round;stroke-linejoin:round;stroke-miterlimit:1.5;">
    <g transform="matrix(0.0138889,0,0,0.0138889,0,0)">
        <g transform="matrix(0.949957,0,0,0.949957,-10.2405,-20.0244)">
            <g id="Ebene1">
                <circle cx="326.584" cy="336.883" r="72.303" style="fill:none;stroke:black;stroke-width:5.26px;"/>
            </g>
        </g>
        <g transform="matrix(1.1023,0,0,1.1023,-29.6621,-30.8017)">
            <g id="Vect">
                <path id="_1-4" serif:id="1-4" d="M196.213,69.835C137.993,89.082 114.868,119.511 107.685,129.814C91.299,153.318 86.249,172.632 87.731,189.309C89.226,206.133 97.435,220.503 108.566,234.019C118.793,246.436 131.511,258.164 142.884,270.83C153.462,282.608 162.896,295.195 167.372,310.262C173.948,332.396 170.583,354.991 167.198,377.626C163.512,402.268 159.765,426.957 165.882,451.226C171.888,475.056 190.731,495.381 215.041,510.784C250.25,533.094 296.748,545.134 328.631,543.987C351.419,543.167 373.246,535.323 393.583,525.511C411.499,516.867 430.823,508.265 445.708,494.846C456.854,484.797 465.847,472.554 473.283,459.584C488.959,432.245 493.736,410.538 492.154,392.167C490.548,373.515 482.383,358.116 471.468,343.625C451.856,317.586 422.53,294.826 413.736,257.094C408.985,236.711 413.78,216.8 417.85,196.7C422.368,174.39 426.097,151.884 418.68,128.488C406.85,91.174 365.65,57.943 325.453,58.614C305.175,58.952 243.469,54.212 196.213,69.835ZM200.769,83.617C246.437,68.519 306.099,73.454 325.695,73.127C359.91,72.556 394.774,101.113 404.843,132.874C411.471,153.781 407.661,173.884 403.624,193.819C399.14,215.964 394.365,237.932 399.599,260.389C407.126,292.683 428.201,315.054 447.177,336.909C462.508,354.567 476.504,371.769 477.825,395.28C478.707,410.979 473.896,429.334 460.691,452.364C454.015,464.008 445.996,475.043 435.989,484.065C422.114,496.574 403.976,504.38 387.275,512.438C368.732,521.385 348.887,528.734 328.109,529.481C298.54,530.545 255.464,519.214 222.81,498.523C201.877,485.26 185.128,468.197 179.957,447.678C174.312,425.284 178.152,402.511 181.553,379.773C185.254,355.027 188.475,330.326 181.286,306.128C173.306,279.268 151.804,259.064 132.554,238.966C117.203,222.938 103.209,207.103 102.074,186.414C101.323,172.741 106.321,157.152 119.592,138.115C126.16,128.694 147.535,101.215 200.769,83.617Z"/>
            </g>
        </g>
    </g>
</svg>
