<?xml version="1.0" encoding="UTF-8" standalone="no"?>
<!DOCTYPE svg PUBLIC "-//W3C//DTD SVG 1.1//EN" "http://www.w3.org/Graphics/SVG/1.1/DTD/svg11.dtd">
<svg width="100%" height="100%" viewBox="0 0 9 9" version="1.1" xmlns="http://www.w3.org/2000/svg" xmlns:xlink="http://www.w3.org/1999/xlink" xml:space="preserve" xmlns:serif="http://www.serif.com/" style="fill-rule:evenodd;clip-rule:evenodd;stroke-linecap:round;stroke-linejoin:round;stroke-miterlimit:1.5;">
    <g transform="matrix(0.0138889,0,0,0.0138889,0,0)">
        <g transform="matrix(0.949957,0,0,0.949957,-10.2405,-20.0244)">
            <g id="Ebene1">
                <circle cx="326.584" cy="336.883" r="72.303" style="fill:none;stroke:black;stroke-width:5.26px;"/>
            </g>
        </g>
        <g transform="matrix(1.122,0,0,1.122,-26.0893,-32.1716)">
            <g id="Vect">
                <path id="_1-5" serif:id="1-5" d="M201.031,60.345C180.163,61.041 156.217,72.558 142.993,83.907C92.408,127.32 86.668,206.983 99.683,268.057C102.16,279.682 105.698,291.144 111.458,301.603C125.625,327.326 145.56,338.501 166.767,347.324C185.855,355.266 206.066,361.048 222.93,376.293C231.711,384.231 236.735,394.579 240.959,405.409C245.665,417.476 249.368,430.158 255.028,441.502C280.722,493 331.73,545.131 394.17,542.392C414.505,541.5 430.085,531.2 442.009,516.732C453.176,503.183 461.072,485.923 466.765,470.109C482.918,425.235 484.802,374.319 486.391,327.225C487.627,290.634 490.055,254.062 480.014,218.338C477.377,208.958 474.268,199.355 468.969,191.102C452.236,165.04 426.93,161.15 398.779,160.42C374.23,159.783 347.387,161.699 323.888,147.638C303.376,135.364 293.328,114.011 278.181,96.676C257.003,72.442 227.107,59.475 201.031,60.345ZM201.506,74.597C223.846,73.852 249.3,85.297 267.442,106.06C283.566,124.511 294.733,146.811 316.566,159.875C342.291,175.268 371.534,173.978 398.409,174.675C421.685,175.279 443.134,177.258 456.969,198.806C461.508,205.876 464.027,214.161 466.285,222.197C475.925,256.492 473.325,291.616 472.139,326.744C470.598,372.394 469.005,421.781 453.347,465.279C448.181,479.633 441.141,495.365 431.005,507.662C421.627,519.041 409.538,527.444 393.545,528.146C336.72,530.638 291.172,482.003 267.788,435.135C262.317,424.171 258.793,411.892 254.244,400.228C249.213,387.326 242.954,375.171 232.493,365.715C214.343,349.307 192.788,342.705 172.245,334.158C153.819,326.492 136.258,317.074 123.949,294.724C118.865,285.492 115.817,275.347 113.63,265.084C101.612,208.689 105.57,134.816 152.281,94.728C163.508,85.092 183.788,75.188 201.506,74.597Z"/>
            </g>
        </g>
    </g>
</svg>
