<?xml version="1.0" encoding="UTF-8" standalone="no"?>
<!DOCTYPE svg PUBLIC "-//W3C//DTD SVG 1.1//EN" "http://www.w3.org/Graphics/SVG/1.1/DTD/svg11.dtd">
<svg width="100%" height="100%" viewBox="0 0 9 9" version="1.1" xmlns="http://www.w3.org/2000/svg" xmlns:xlink="http://www.w3.org/1999/xlink" xml:space="preserve" xmlns:serif="http://www.serif.com/" style="fill-rule:evenodd;clip-rule:evenodd;stroke-linecap:round;stroke-linejoin:round;stroke-miterlimit:1.5;">
    <g transform="matrix(0.0138889,0,0,0.0138889,0,0)">
        <g transform="matrix(0.949957,0,0,0.949957,-10.2405,-20.0244)">
            <g id="Ebene1">
                <circle cx="326.584" cy="336.883" r="72.303" style="fill:none;stroke:black;stroke-width:5.26px;"/>
            </g>
        </g>
        <g transform="matrix(1.1705,0,0,1.1705,-49.5683,-52.1243)">
            <g id="Vect">
                <path id="_1-6" serif:id="1-6" d="M171.055,190.876C173.771,181.834 181.814,156.988 194.518,133.748C205.638,113.405 220.464,94.516 237.984,87.123C271.405,73.022 313.518,73.295 349.316,74.421C365.666,74.936 387.304,74.987 406.648,79.121C420.519,82.085 433.222,87.177 442.477,95.57C450.17,102.545 457.286,112.492 462.039,121.799C467.044,131.597 471.732,145.632 472.914,159.104C473.76,168.751 472.778,178.11 469.245,185.696C465.297,194.174 457.988,200.62 451.472,207.082C436.183,222.246 423.316,237.892 419.951,259.986C417.669,274.973 421.338,290.034 426.172,304.941C431.414,321.111 438.066,337.098 441.353,352.585C453.678,410.647 430.309,487.064 377.81,519.86C365.201,527.737 351.294,533.267 336.641,535.808C278.118,545.955 229.5,509.858 200.982,460.94C185.451,434.298 176.603,404.391 161.055,377.695C151.864,361.913 139.511,346.415 129.196,330.088C118.207,312.694 109.535,294.366 108.388,274.048C106.055,232.728 135.152,203.549 171.055,190.876ZM178.699,202.726C180.906,202.021 182.605,200.246 183.213,198.011C183.213,198.011 191.394,167.962 206.512,140.305C216.068,122.823 228.243,106.07 243.298,99.718C274.981,86.349 314.949,87.017 348.887,88.084C364.542,88.576 385.269,88.531 403.792,92.489C415.165,94.919 425.706,98.815 433.295,105.696C439.831,111.622 445.827,120.11 449.866,128.017C454.198,136.497 458.274,148.639 459.297,160.298C459.92,167.406 459.456,174.336 456.854,179.925C453.585,186.943 447.24,192.028 441.846,197.377C424.432,214.648 410.27,232.762 406.437,257.928C403.839,274.991 407.666,292.186 413.169,309.157C418.262,324.866 424.788,340.378 427.981,355.423C439.227,408.402 418.47,478.342 370.567,508.267C359.459,515.207 347.215,520.101 334.305,522.339C281.66,531.468 238.445,498.061 212.791,454.056C197.261,427.415 188.414,397.51 172.867,370.816C163.597,354.898 151.156,339.254 140.753,322.787C131.023,307.386 123.051,291.267 122.036,273.278C120.003,237.272 147.059,212.837 178.699,202.726Z"/>
            </g>
        </g>
    </g>
</svg>
