<?xml version="1.0" encoding="UTF-8" standalone="no"?>
<!DOCTYPE svg PUBLIC "-//W3C//DTD SVG 1.1//EN" "http://www.w3.org/Graphics/SVG/1.1/DTD/svg11.dtd">
<svg width="100%" height="100%" viewBox="0 0 9 9" version="1.1" xmlns="http://www.w3.org/2000/svg" xmlns:xlink="http://www.w3.org/1999/xlink" xml:space="preserve" xmlns:serif="http://www.serif.com/" style="fill-rule:evenodd;clip-rule:evenodd;stroke-linecap:round;stroke-linejoin:round;stroke-miterlimit:1.5;">
    <g transform="matrix(0.0138889,0,0,0.0138889,0,0)">
        <g transform="matrix(0.949957,0,0,0.949957,-10.2405,-20.0244)">
            <g id="Ebene1">
                <circle cx="326.584" cy="336.883" r="72.303" style="fill:none;stroke:black;stroke-width:5.26px;"/>
            </g>
        </g>
        <g transform="matrix(1.13842,0,0,1.13842,-41.9788,-41.8878)">
            <g id="Vect">
                <path id="_2-0" serif:id="2-0" d="M511.148,285.721C514.732,289.675 519.567,295.168 523.201,300.133C526.203,304.235 528.379,308.135 529.123,310.887C536.733,339.016 532.941,374.224 522.134,401.155C517.039,413.851 508.873,425.753 501.397,437.154C472.531,481.18 434.742,492.767 393.369,493.996C354.298,495.157 311.921,486.655 271.433,489.693C252.89,491.084 235.248,498.006 217.439,502.934C197.88,508.346 178.156,511.448 157.155,504.603C122.701,493.373 95.143,456.683 83.97,423.858C78.642,408.204 76.932,391.642 75.298,375.282C72.845,350.726 66.08,304.833 71.284,266.995C75.053,239.584 85.317,216.44 106.039,206.266C126.441,196.249 152.152,196.033 175.499,193.226C195.614,190.808 214.013,186.624 223.287,168.224C232.259,150.426 242.856,127.622 256.011,118.179C285.436,97.058 319.617,93.471 353.662,99.025C386.589,104.396 419.367,118.351 447.147,132.491C475.453,146.899 507.803,162.627 525.505,190.479C532.063,200.797 536.737,217.624 537.167,233.468C537.467,244.482 535.685,254.992 531.517,262.728C528.041,269.179 518.728,279.047 511.148,285.721ZM235.838,174.55C243.813,158.728 252.512,137.992 264.207,129.597C290.457,110.754 321.026,107.942 351.4,112.896C382.892,118.033 414.202,131.492 440.771,145.016C466.936,158.335 497.28,172.272 513.644,198.018C519.101,206.603 522.76,220.666 523.118,233.85C523.345,242.19 522.3,250.204 519.144,256.062C515.382,263.043 503.262,274.663 496.895,279.208C496.562,279.445 491.456,284.862 496.212,290.202C497.975,292.181 504.308,298.82 509.504,305.356C512.313,308.89 514.932,312.247 515.556,314.557C522.416,339.915 518.833,371.642 509.09,395.921C504.337,407.766 496.618,418.811 489.644,429.448C463.848,468.79 429.924,478.85 392.952,479.948C353.678,481.115 311.08,472.624 270.382,475.677C250.928,477.137 232.375,484.218 213.691,489.388C196.757,494.074 179.693,497.166 161.51,491.24C131.025,481.304 107.161,448.373 97.275,419.329C92.292,404.691 90.811,389.184 89.283,373.886C86.905,350.079 80.163,305.593 85.207,268.909C88.271,246.635 95.394,227.15 112.233,218.882C131.283,209.529 155.376,209.801 177.176,207.18C202.211,204.171 224.294,197.451 235.838,174.55Z"/>
            </g>
        </g>
    </g>
</svg>
