<?xml version="1.0" encoding="UTF-8" standalone="no"?>
<!DOCTYPE svg PUBLIC "-//W3C//DTD SVG 1.1//EN" "http://www.w3.org/Graphics/SVG/1.1/DTD/svg11.dtd">
<svg width="100%" height="100%" viewBox="0 0 9 9" version="1.1" xmlns="http://www.w3.org/2000/svg" xmlns:xlink="http://www.w3.org/1999/xlink" xml:space="preserve" xmlns:serif="http://www.serif.com/" style="fill-rule:evenodd;clip-rule:evenodd;stroke-linecap:round;stroke-linejoin:round;stroke-miterlimit:1.5;">
    <g transform="matrix(0.0138889,0,0,0.0138889,0,0)">
        <g transform="matrix(0.949957,0,0,0.949957,-10.2405,-20.0244)">
            <g id="Ebene1">
                <circle cx="326.584" cy="336.883" r="72.303" style="fill:none;stroke:black;stroke-width:5.26px;"/>
            </g>
        </g>
        <g transform="matrix(1.09727,0,0,1.09727,-54.0471,-51.3617)">
            <g id="Vect">
                <path id="_2-1" serif:id="2-1" d="M221.294,159.167C209.174,166.892 200.821,181.736 194.234,199.15C185.481,222.289 179.672,250.117 168.301,267.429C162.277,276.601 153.688,283.116 144.893,289.445C134.942,296.607 124.708,303.514 116.563,312.635C107.579,322.696 99.863,339.853 94.479,358.984C86.578,387.062 83.602,419.315 87.5,438.227C92.508,462.521 112.311,478.669 135.159,485.963C149.794,490.635 164.638,490.01 179.57,489.038C192.824,488.175 206.154,487.011 219.424,490.468C234.274,494.336 246.001,503.856 259.659,510.338C282.551,521.203 337.4,537.132 361.283,535.156C425.548,529.839 473.009,477.439 514.546,434.053C543.309,404.01 570.353,372.362 561.099,326.89C556.351,303.56 542.106,290.769 526.97,278.356C514.115,267.813 500.496,257.623 494.475,238.357C487.2,215.076 489.312,188.201 487.005,163.176C484.449,135.453 476.802,109.951 449.808,92.296C437.637,84.336 423.098,82.688 408.997,85.526C378.546,91.653 363.044,111.519 349.848,132.432C338.494,150.426 329.364,169.455 310.205,177.205C305.983,178.913 301.641,177.524 297.038,175.399C290.654,172.451 283.998,167.83 276.991,163.623C260.207,153.546 241.745,146.133 221.294,159.167ZM229.131,171.464C239.419,164.907 248.969,166.234 257.882,170.018C264.883,172.991 271.537,177.378 277.922,181.343C283.986,185.109 289.849,188.517 295.485,190.503C302.449,192.956 309.17,193.354 315.673,190.723C337.67,181.825 349.144,160.873 362.18,140.213C373.374,122.473 386.041,105.019 411.874,99.821C422.207,97.742 432.907,98.666 441.827,104.499C464.553,119.363 470.333,141.175 472.485,164.515C474.886,190.552 472.988,218.484 480.557,242.707C487.551,265.085 502.792,277.385 517.724,289.631C530.375,300.006 542.842,310.298 546.81,329.798C555.003,370.055 529.478,397.371 504.013,423.969C464.791,464.937 420.764,515.603 360.081,520.624C337.924,522.457 287.148,507.244 265.911,497.165C251.423,490.289 238.852,480.46 223.1,476.357C208.287,472.498 193.418,473.524 178.623,474.487C165.506,475.341 152.449,476.176 139.594,472.072C121.725,466.367 105.698,454.284 101.782,435.283C98.221,418.008 101.298,388.581 108.516,362.934C113.212,346.247 119.604,331.123 127.44,322.347C134.879,314.016 144.321,307.822 153.411,301.281C163.656,293.907 173.472,286.118 180.489,275.434C190.467,260.242 196.635,237.46 203.7,216.169C209.966,197.286 216.597,179.453 229.131,171.464Z"/>
            </g>
        </g>
    </g>
</svg>
