<?xml version="1.0" encoding="UTF-8" standalone="no"?>
<!DOCTYPE svg PUBLIC "-//W3C//DTD SVG 1.1//EN" "http://www.w3.org/Graphics/SVG/1.1/DTD/svg11.dtd">
<svg width="100%" height="100%" viewBox="0 0 9 9" version="1.1" xmlns="http://www.w3.org/2000/svg" xmlns:xlink="http://www.w3.org/1999/xlink" xml:space="preserve" xmlns:serif="http://www.serif.com/" style="fill-rule:evenodd;clip-rule:evenodd;stroke-linecap:round;stroke-linejoin:round;stroke-miterlimit:1.5;">
    <g transform="matrix(0.0138889,0,0,0.0138889,0,0)">
        <g transform="matrix(0.949957,0,0,0.949957,-10.2405,-20.0244)">
            <g id="Ebene1">
                <circle cx="326.584" cy="336.883" r="72.303" style="fill:none;stroke:black;stroke-width:5.26px;"/>
            </g>
        </g>
        <g transform="matrix(1.08488,0,0,1.08488,-48.0157,-43.5295)">
            <g id="Vect">
                <path id="_2-2" serif:id="2-2" d="M114.628,165.373C93.995,187.377 71.68,237.749 64.886,284.868C60.201,317.363 63.104,348.235 77.614,367.903C87.491,381.291 101.221,389.39 115.425,396.937C127.963,403.6 140.895,409.791 150.858,420.223C160.201,430.007 164.447,443.139 169.218,455.838C174.812,470.731 181.047,485.076 193.495,495.018C216.655,513.515 249.295,518.079 277.833,519.618C340.469,522.997 405.799,512.215 457.484,474.481C483.015,455.842 496.647,429.762 511.429,402.716C534.088,361.259 562.602,314.74 570.732,267.648C576.587,233.735 572.768,195.789 540.182,176.498C520.135,164.631 495.851,167.094 473.661,167.726C434.009,168.856 392.104,175.594 352.901,167.984C328.979,163.34 308.02,152.084 285.287,144.057C251.166,132.009 209.631,128.468 174.428,135.473C150.148,140.304 128.873,150.183 114.628,165.373ZM125.386,175.462C137.713,162.317 156.296,154.118 177.306,149.938C210.037,143.424 248.652,146.762 280.376,157.964C303.797,166.234 325.445,177.678 350.091,182.462C390.342,190.275 433.368,183.628 474.081,182.468C493.584,181.913 515.05,178.759 532.669,189.189C559.621,205.144 561.042,237.09 556.199,265.139C548.334,310.693 520.406,355.54 498.487,395.643C484.762,420.756 472.494,445.263 448.788,462.57C399.862,498.289 337.919,508.09 278.627,504.892C253.002,503.509 223.495,500.103 202.698,483.494C192.359,475.236 187.671,463.022 183.024,450.652C177.553,436.088 172.239,421.258 161.524,410.037C150.458,398.451 136.27,391.313 122.345,383.913C110.085,377.399 98.008,370.704 89.482,359.147C76.896,342.088 75.42,315.158 79.483,286.972C85.813,243.073 106.163,195.961 125.386,175.462Z"/>
            </g>
        </g>
    </g>
</svg>
