<?xml version="1.0" encoding="UTF-8" standalone="no"?>
<!DOCTYPE svg PUBLIC "-//W3C//DTD SVG 1.1//EN" "http://www.w3.org/Graphics/SVG/1.1/DTD/svg11.dtd">
<svg width="100%" height="100%" viewBox="0 0 9 9" version="1.1" xmlns="http://www.w3.org/2000/svg" xmlns:xlink="http://www.w3.org/1999/xlink" xml:space="preserve" xmlns:serif="http://www.serif.com/" style="fill-rule:evenodd;clip-rule:evenodd;stroke-linecap:round;stroke-linejoin:round;stroke-miterlimit:1.5;">
    <g transform="matrix(0.0138889,0,0,0.0138889,0,0)">
        <g transform="matrix(0.949957,0,0,0.949957,-10.2405,-20.0244)">
            <g id="Ebene1">
                <circle cx="326.584" cy="336.883" r="72.303" style="fill:none;stroke:black;stroke-width:5.26px;"/>
            </g>
        </g>
        <g transform="matrix(1.32,0,0,1.29221,-121.827,-100.445)">
            <g id="Vect">
                <path id="_2-3" serif:id="2-3" d="M216.537,149.314C189.379,162.979 157.62,208.035 142.542,241.055C124.784,279.945 111.13,331.501 115.391,376.628C119.792,423.24 142.863,463.179 198.956,476.871C213.53,480.429 228.814,483.201 243.875,482.783C263.757,482.231 284.241,479.59 303.026,472.856C358.128,453.103 399.831,397.452 441.967,358.234C466.664,335.248 498.887,320.208 521.895,295.423C542.584,273.137 543.764,236.435 520.884,214.838C491.532,187.133 446.303,187.467 409.397,193.698C390.071,196.961 371.655,203.639 352.104,198.436C343.119,196.045 336.595,189.874 330.526,183.057C323.465,175.126 317.027,166.287 309.224,159.724C283.659,138.223 244.309,135.339 216.537,149.314ZM221.893,160.421C245.749,148.417 279.559,150.814 301.519,169.283C308.888,175.48 314.891,183.899 321.558,191.388C329.218,199.991 337.709,207.401 349.048,210.418C370.3,216.073 390.367,209.462 411.374,205.914C444.835,200.264 486.045,198.812 512.657,223.932C530.536,240.807 529.266,269.489 513.1,286.903C490.292,311.473 458.285,326.296 433.803,349.082C392.796,387.249 352.638,441.948 299.013,461.172C281.401,467.486 262.185,469.888 243.546,470.405C229.537,470.794 215.329,468.138 201.773,464.828C151.81,452.633 131.376,416.957 127.456,375.439C123.396,332.436 136.605,283.348 153.527,246.289C167.566,215.543 196.605,173.145 221.893,160.421Z"/>
            </g>
        </g>
    </g>
</svg>
