<?xml version="1.0" encoding="UTF-8" standalone="no"?>
<!DOCTYPE svg PUBLIC "-//W3C//DTD SVG 1.1//EN" "http://www.w3.org/Graphics/SVG/1.1/DTD/svg11.dtd">
<svg width="100%" height="100%" viewBox="0 0 9 9" version="1.1" xmlns="http://www.w3.org/2000/svg" xmlns:xlink="http://www.w3.org/1999/xlink" xml:space="preserve" xmlns:serif="http://www.serif.com/" style="fill-rule:evenodd;clip-rule:evenodd;stroke-linecap:round;stroke-linejoin:round;stroke-miterlimit:1.5;">
    <g transform="matrix(0.0138889,0,0,0.0138889,0,0)">
        <g transform="matrix(0.949957,0,0,0.949957,-10.2405,-20.0244)">
            <g id="Ebene1">
                <circle cx="326.584" cy="336.883" r="72.303" style="fill:none;stroke:black;stroke-width:5.26px;"/>
            </g>
        </g>
        <g transform="matrix(1.07223,0,0,1.07223,-22.1913,-22.0513)">
            <g id="Vect">
                <path id="_2-4" serif:id="2-4" d="M202.244,62.118C124.694,78.558 42.064,158.012 63.031,249.276C68.403,272.659 80.445,293.935 91.93,315.248C102.644,335.129 112.894,355.03 115.461,377.144C116.276,384.164 112.988,390.752 108.57,397.447C103.173,405.624 95.937,413.776 89.625,422.287C74.931,442.101 65.2,463.602 84.484,490.079C91.017,499.05 100.954,505.001 112.103,507.993C128.107,512.288 146.53,510.399 159.769,503.535C171.476,497.465 180.353,487.322 192.474,481.843C205.626,475.898 218.293,473.455 232.668,475.491C266.697,480.313 295.25,500.473 324.427,518.716C355.788,538.326 387.814,555.797 426.575,553.789C443.87,552.894 461.357,549.452 477.794,544.028C522.325,529.335 557.294,486.859 554.615,437.927C553.358,414.971 542.551,393.124 536.863,371.128C530.647,347.087 526.563,322.578 520.64,298.482C510.023,255.287 488.568,215.25 461.802,179.997C448.814,162.89 435.492,145.637 420.344,130.267C355.084,64.051 277.855,46.089 202.244,62.118ZM205.338,76.716C276.208,61.692 348.548,78.677 409.716,140.742C424.415,155.656 437.314,172.421 449.917,189.021C475.459,222.662 496.018,260.825 506.15,302.044C512.087,326.198 516.185,350.765 522.416,374.864C527.862,395.925 538.512,416.762 539.715,438.743C542.023,480.901 511.485,517.198 473.118,529.857C457.933,534.868 441.781,538.06 425.803,538.887C390.251,540.728 361.103,524.05 332.338,506.064C301.387,486.711 270.86,465.831 234.761,460.717C217.446,458.263 202.17,461.084 186.327,468.245C173.961,473.835 164.845,484.095 152.9,490.288C144.36,494.716 133.015,496.334 122.305,494.855C112.079,493.443 102.323,489.226 96.546,481.294C82.258,461.676 90.723,445.857 101.61,431.176C109.484,420.56 118.672,410.431 124.355,400.205C128.854,392.109 131.266,383.891 130.283,375.424C127.499,351.436 116.688,329.734 105.066,308.169C94.217,288.036 82.649,268.023 77.575,245.934C58.515,162.974 134.844,91.66 205.338,76.716Z"/>
            </g>
        </g>
    </g>
</svg>
