<?xml version="1.0" encoding="UTF-8" standalone="no"?>
<!DOCTYPE svg PUBLIC "-//W3C//DTD SVG 1.1//EN" "http://www.w3.org/Graphics/SVG/1.1/DTD/svg11.dtd">
<svg width="100%" height="100%" viewBox="0 0 9 9" version="1.1" xmlns="http://www.w3.org/2000/svg" xmlns:xlink="http://www.w3.org/1999/xlink" xml:space="preserve" xmlns:serif="http://www.serif.com/" style="fill-rule:evenodd;clip-rule:evenodd;stroke-linecap:round;stroke-linejoin:round;stroke-miterlimit:1.5;">
    <g transform="matrix(0.0138889,0,0,0.0138889,0,0)">
        <g transform="matrix(0.949957,0,0,0.949957,-10.2405,-20.0244)">
            <g id="Ebene1">
                <circle cx="326.584" cy="336.883" r="72.303" style="fill:none;stroke:black;stroke-width:5.26px;"/>
            </g>
        </g>
        <g transform="matrix(1.06136,0,0,1.06136,-18.614,-18.1706)">
            <g id="Vect">
                <path id="_2-5" serif:id="2-5" d="M238.88,161.189C226.612,165.763 212.996,164.653 199.443,163.257C183.922,161.658 168.457,159.624 154.642,162.469C130.639,167.412 111.641,184.392 98.155,206.775C78.756,238.974 70.845,282.287 74.69,313.574C76.212,325.954 79.91,338.153 83.049,350.409C85.909,361.572 88.317,372.783 87.541,384.294C86.889,393.985 82.024,405.674 76.76,418.071C70.959,431.734 64.581,446.135 61.37,459.705C56.464,480.431 58.736,499.309 77.333,512.538C88.049,520.16 101.114,523.021 114.619,522.566C133.607,521.925 153.451,514.683 167.807,506.288C187.129,494.99 201.915,481.315 216.938,470.184C237.432,455 258.452,445.045 294.815,455.723C305.971,458.999 317.783,466.507 330.078,475.524C349.829,490.008 370.607,508.382 391.308,521.645C416.619,537.861 442.015,546.186 465.528,534.837C494.052,521.069 505.263,489.154 505.933,459.331C506.964,413.382 494.529,371.103 502.766,324.926C512.54,270.134 543.598,212.892 547.357,159.728C549.461,129.971 534.843,87.251 509.773,69.915C493.318,58.536 471.136,53.69 451.503,52.413C405.477,49.419 363.643,72.436 327.071,98.963C292.55,124.004 263,152.198 238.88,161.189ZM244.146,175.315C269.168,165.987 300.109,137.144 335.923,111.166C369.687,86.675 408.032,64.692 450.524,67.456C467.565,68.564 486.917,72.438 501.198,82.314C522.429,96.995 534.101,133.465 532.32,158.665C528.595,211.338 497.609,267.993 487.925,322.279C479.547,369.247 491.911,412.256 490.861,458.993C490.314,483.355 482.276,510.014 458.975,521.261C440.012,530.413 419.853,522.029 399.441,508.951C378.995,495.852 358.5,477.673 338.993,463.367C325.117,453.191 311.653,444.956 299.062,441.258C256.535,428.77 231.933,440.313 207.963,458.072C193.343,468.904 179.002,482.279 160.197,493.275C147.749,500.554 130.576,506.944 114.111,507.499C103.981,507.841 94.109,505.971 86.071,500.254C69.35,488.359 73.066,469.712 79.833,450.563C88.05,427.31 101.382,403.122 102.582,385.307C104.274,360.204 92.675,336.325 89.653,311.735C86.153,283.262 93.413,243.858 111.068,214.555C122.285,195.937 137.717,181.346 157.683,177.234C170.085,174.68 183.964,176.817 197.898,178.252C213.801,179.891 229.75,180.681 244.146,175.315Z"/>
            </g>
        </g>
    </g>
</svg>
