<?xml version="1.0" encoding="UTF-8" standalone="no"?>
<!DOCTYPE svg PUBLIC "-//W3C//DTD SVG 1.1//EN" "http://www.w3.org/Graphics/SVG/1.1/DTD/svg11.dtd">
<svg width="100%" height="100%" viewBox="0 0 9 9" version="1.1" xmlns="http://www.w3.org/2000/svg" xmlns:xlink="http://www.w3.org/1999/xlink" xml:space="preserve" xmlns:serif="http://www.serif.com/" style="fill-rule:evenodd;clip-rule:evenodd;stroke-linecap:round;stroke-linejoin:round;stroke-miterlimit:1.5;">
    <g transform="matrix(0.0138889,0,0,0.0138889,0,0)">
        <g transform="matrix(0.949957,0,0,0.949957,-10.2405,-20.0244)">
            <g id="Ebene1">
                <circle cx="326.584" cy="336.883" r="72.303" style="fill:none;stroke:black;stroke-width:5.26px;"/>
            </g>
        </g>
        <g transform="matrix(1.17117,0,0,1.17117,-50.339,-53.2654)">
            <g id="Vect">
                <path id="_2-6" serif:id="2-6" d="M117.177,217.365C113.174,244.614 107.082,285.37 112.011,323.482C117.163,363.313 134.234,400.164 176.442,417.605C191.567,423.855 208.362,424.672 224.922,426.016C239.658,427.211 254.219,428.788 266.756,436.722C277.895,443.772 285.48,455.617 294.574,464.973C316.259,487.284 338.219,511.888 362.921,530.861C381.212,544.91 414.707,548.331 440.665,539.218C458.856,532.832 473.21,520.461 477.217,502.335C480.641,486.851 471.878,469.718 463.646,457.203C460.363,452.212 452.917,447.084 444.236,442.389C433.61,436.644 420.989,431.375 415.803,426.234C399.11,409.686 391.31,392.437 388.902,366.551C387.696,353.581 392.433,340.876 398.411,328.542C405.013,314.923 413.204,301.761 418.304,289.308C440.667,234.707 442.541,167.299 402.994,120.19C383.758,97.275 350.894,90.129 323.08,84.52C291.276,78.107 255.937,74.36 224.34,83.49C168.284,99.687 125.395,161.415 117.177,217.365ZM130.693,219.351C138.204,168.22 176.905,111.417 228.132,96.615C257.653,88.084 290.666,91.92 320.379,97.912C345.346,102.946 375.264,108.405 392.531,128.974C428.794,172.172 426.168,234.062 405.662,284.131C400.66,296.341 392.591,309.228 386.118,322.583C379.021,337.224 373.868,352.42 375.3,367.816C378.05,397.391 387.114,417.03 406.185,435.936C411.099,440.808 421.696,446.103 432.118,451.457C440.61,455.82 449.129,459.994 452.232,464.711C458.621,474.424 466.535,487.368 463.878,499.386C460.894,512.883 449.686,521.572 436.14,526.328C414.494,533.927 386.495,531.741 371.242,520.026C347.054,501.448 325.605,477.299 304.37,455.451C294.545,445.342 286.097,432.796 274.062,425.178C259.631,416.045 242.989,413.775 226.026,412.399C210.887,411.171 195.487,410.693 181.659,404.979C144.512,389.629 130.094,356.785 125.56,321.73C120.804,284.958 126.831,245.642 130.693,219.351Z"/>
            </g>
        </g>
    </g>
</svg>
