<?xml version="1.0" encoding="UTF-8" standalone="no"?>
<!DOCTYPE svg PUBLIC "-//W3C//DTD SVG 1.1//EN" "http://www.w3.org/Graphics/SVG/1.1/DTD/svg11.dtd">
<svg width="100%" height="100%" viewBox="0 0 2500 2500" version="1.1" xmlns="http://www.w3.org/2000/svg" xmlns:xlink="http://www.w3.org/1999/xlink" xml:space="preserve" xmlns:serif="http://www.serif.com/" style="fill-rule:evenodd;clip-rule:evenodd;stroke-linecap:round;stroke-linejoin:round;stroke-miterlimit:1.5;">
    <g transform="matrix(4.16667,0,0,4.16667,0,0)">
        <g transform="matrix(0.949957,0,0,0.949957,-10.2405,-20.0244)">
            <g id="Ebene1">
                <circle cx="326.584" cy="336.883" r="72.303" style="fill:none;stroke:black;stroke-width:5.26px;"/>
            </g>
        </g>
        <g transform="matrix(1.09905,0,0,1.09905,-31.153,-29.4424)">
            <g id="Vect">
                <path id="_3-0" serif:id="3-0" d="M188.994,292.589C176.705,291.365 157.958,286.802 147.595,271.012C134.598,251.211 131.989,226.208 130.809,203.368C128.506,158.794 130.025,127.55 161.747,94.746C184.984,70.716 213.534,52.632 237.416,50.046C257.309,47.892 276.5,55.224 295.508,64.094C312.618,72.078 329.573,81.325 347.081,83.857C365.829,86.569 385.771,82.159 404.897,80.866C420.993,79.778 436.537,80.783 450.636,88.179C464.721,95.568 477.591,109.344 487.767,134.638C503.391,173.473 501.301,215.224 489.979,256.639C473.486,316.972 437.324,376.605 410.381,424.78C391.386,458.743 373.032,495.712 340.308,518.599C303.905,544.058 250.446,558.48 212.815,525.898C203.218,517.589 194.599,504.907 193.472,491.826C191.658,470.78 200.488,453.477 208.287,434.734C209.713,431.308 212.125,426.708 213.861,421.996C215.029,418.827 216.196,415.651 215.366,413.059C213.722,407.927 209.596,406.177 204.975,405.009C200.409,403.856 195.333,403.33 190.387,402.462C180.919,400.802 172.013,397.808 165.995,390.29C161.979,385.273 159.091,378.139 158.63,367.545C157.719,346.623 167.302,324.74 178.664,307.589C179.775,305.913 184.799,298.643 188.994,292.589ZM172.212,104.866C192.839,83.535 217.784,66.815 238.984,64.52C256.278,62.647 272.826,69.575 289.352,77.286C307.775,85.883 326.146,95.539 344.997,98.265C364.735,101.12 385.744,96.753 405.879,95.391C419.229,94.489 432.18,94.937 443.873,101.071C455.582,107.214 465.801,119.045 474.261,140.071C492.38,185.107 484.199,234.355 466.471,281.949C448.221,330.943 419.753,378.198 397.676,417.674C379.731,449.76 362.88,485.047 331.964,506.669C300.628,528.585 254.738,542.939 222.344,514.892C215.426,508.902 208.789,500.006 207.976,490.576C206.374,471.987 214.839,456.882 221.728,440.328C223.553,435.942 226.839,429.73 228.637,423.699C230.241,418.318 230.64,413.02 229.23,408.617C224.921,395.169 213.519,391.385 200.487,389.322C195.517,388.535 190.338,387.945 185.67,386.425C182.17,385.285 178.962,383.606 176.746,380.361C174.627,377.258 173.436,372.924 173.174,366.912C172.393,348.964 181.054,330.342 190.801,315.63C192.643,312.848 202.816,299.281 206.72,292.793C208.884,289.196 209.326,286.24 209.242,285.221C209.124,283.777 207.784,278.426 201.124,278.35C196.408,278.295 172.234,282.021 159.765,263.024C148.185,245.38 146.399,222.969 145.348,202.617C143.281,162.608 143.739,134.311 172.212,104.866Z"/>
            </g>
        </g>
    </g>
</svg>
