<?xml version="1.0" encoding="UTF-8" standalone="no"?>
<!DOCTYPE svg PUBLIC "-//W3C//DTD SVG 1.1//EN" "http://www.w3.org/Graphics/SVG/1.1/DTD/svg11.dtd">
<svg width="100%" height="100%" viewBox="0 0 2500 2500" version="1.1" xmlns="http://www.w3.org/2000/svg" xmlns:xlink="http://www.w3.org/1999/xlink" xml:space="preserve" xmlns:serif="http://www.serif.com/" style="fill-rule:evenodd;clip-rule:evenodd;stroke-linecap:round;stroke-linejoin:round;stroke-miterlimit:1.5;">
    <g transform="matrix(4.16667,0,0,4.16667,0,0)">
        <g transform="matrix(0.949957,0,0,0.949957,-10.2405,-20.0244)">
            <g id="Ebene1">
                <circle cx="326.584" cy="336.883" r="72.303" style="fill:none;stroke:black;stroke-width:5.26px;"/>
            </g>
        </g>
        <g transform="matrix(1.12349,0,0,1.12349,-40.8523,-37.4953)">
            <g id="Vect">
                <path id="_3-1" serif:id="3-1" d="M199.613,65.68C183.811,74.311 172.904,90.878 166.953,110.302C158.366,138.328 160.121,172.137 170.454,194.074C175.591,204.98 183.376,215.234 189.962,225.911C195.727,235.256 200.603,244.923 200.773,256.03C201.094,277.014 189.364,289.881 177.412,301.804C163.019,316.162 148.428,329.508 145.888,349.289C144.156,362.777 149.894,373.235 157.322,383.158C163.126,390.911 170.145,398.222 172.808,407.525C176.917,421.882 176.973,433.209 178.175,445.011C179.492,457.954 182.008,471.424 191.283,489.287C205.465,516.603 233.207,536.519 264.415,545.914C295.53,555.282 329.971,554.159 357.455,540.057C413.782,511.157 448.738,456.351 481.654,405.265C498.368,379.324 516.676,347.786 516.052,315.872C515.619,293.752 505.405,277.902 492.607,263.449C481.214,250.582 467.648,238.937 458.904,223.841C451.4,210.883 447.34,196.259 442.911,181.771C438.107,166.054 432.887,150.495 423.445,136.913C395.5,96.715 339.384,68.837 287.953,59.123C252.961,52.513 220.192,54.44 199.613,65.68ZM206.439,78.179C224.8,68.151 254.09,67.22 285.31,73.117C333.196,82.162 385.733,107.615 411.752,145.042C420.343,157.401 424.92,171.633 429.292,185.935C434.04,201.466 438.536,217.087 446.581,230.978C455.8,246.896 469.932,259.323 481.945,272.89C492.554,284.871 501.454,297.814 501.813,316.15C502.384,345.309 484.953,373.85 469.682,397.551C438.086,446.589 405.022,499.645 350.953,527.387C326.609,539.877 296.082,540.576 268.52,532.278C241.051,524.007 216.406,506.769 203.922,482.725C194.016,463.647 192.839,450.18 191.703,436.418C190.866,426.28 190.045,415.994 186.499,403.606C183.364,392.65 175.558,383.753 168.723,374.623C163.511,367.661 158.798,360.567 160.013,351.103C162.147,334.488 175.381,323.946 187.47,311.887C202,297.393 215.403,281.321 215.013,255.812C214.803,242.085 209.208,229.984 202.083,218.434C195.779,208.214 188.255,198.444 183.338,188.006C174.269,168.753 173.033,139.07 180.569,114.474C185.366,98.817 193.702,85.136 206.439,78.179Z"/>
            </g>
        </g>
    </g>
</svg>
