<?xml version="1.0" encoding="UTF-8" standalone="no"?>
<!DOCTYPE svg PUBLIC "-//W3C//DTD SVG 1.1//EN" "http://www.w3.org/Graphics/SVG/1.1/DTD/svg11.dtd">
<svg width="100%" height="100%" viewBox="0 0 2500 2500" version="1.1" xmlns="http://www.w3.org/2000/svg" xmlns:xlink="http://www.w3.org/1999/xlink" xml:space="preserve" xmlns:serif="http://www.serif.com/" style="fill-rule:evenodd;clip-rule:evenodd;stroke-linecap:round;stroke-linejoin:round;stroke-miterlimit:1.5;">
    <g transform="matrix(4.16667,0,0,4.16667,0,0)">
        <g transform="matrix(0.949957,0,0,0.949957,-10.2405,-20.0244)">
            <g id="Ebene1">
                <circle cx="326.584" cy="336.883" r="72.303" style="fill:none;stroke:black;stroke-width:5.26px;"/>
            </g>
        </g>
        <g transform="matrix(1.11036,0,0,1.11036,-47.1797,-25.526)">
            <g id="Vect">
                <path id="_3-2" serif:id="3-2" d="M197.311,45.809C179.827,45.98 159.72,57.788 149.186,66.674C124.177,87.772 112.626,116.541 108.116,147.519C103.783,177.291 105.988,209.098 108.333,237.514C109.568,252.486 111.573,267.335 113.556,282.221C116.028,300.773 118.596,319.312 121.262,337.837C124.627,361.223 128.785,384.471 132.363,407.822C135.403,427.665 135.033,446.414 131.605,466.193C130.54,472.342 127.603,480.092 126.381,487.526C125.331,493.914 125.497,500.105 127.79,505.401C133.012,517.461 143.605,526.261 156.493,531.982C174.497,539.975 196.942,541.934 213.061,539.612C265.091,532.118 316.631,507.114 363.161,484.208C394.316,468.871 425.935,456.058 452.356,438.01C479.849,419.23 501.843,394.906 512.527,356.966C517.924,337.8 521.113,320.428 519.11,300.422C517.161,280.944 511.058,262.734 503.563,244.745C494.783,223.672 484.024,200.863 467.875,184.462C444.668,160.892 421.83,160.658 399.583,163.775C389.677,165.163 379.921,167.271 370.348,167.777C361.87,168.225 353.538,167.379 345.425,163.017C338.244,159.156 334.53,151.281 331.201,143.055C327.026,132.739 323.696,121.689 318.469,113.739C288.556,68.239 234.586,45.446 197.311,45.809ZM197.452,60.218C231.023,59.891 279.487,80.676 306.428,121.655C312.261,130.528 315.325,143.651 320.538,154.642C324.798,163.626 330.387,171.292 338.601,175.708C355.047,184.551 372.108,182.754 389.669,179.916C411.568,176.377 434.475,171.078 457.607,194.572C472.493,209.691 482.168,230.861 490.262,250.287C497.208,266.958 502.966,283.805 504.772,301.856C506.586,319.979 503.546,335.698 498.657,353.06C487.042,394.304 460.427,417.586 428.436,435.967C406.169,448.761 381.326,459.205 356.796,471.28C311.577,493.541 261.571,518.066 211.007,525.35C197.14,527.347 177.828,525.688 162.34,518.812C152.9,514.621 144.838,508.509 141.014,499.675C139.358,495.851 140.201,491.206 141.253,486.562C142.69,480.215 144.9,473.867 145.803,468.654C149.504,447.302 149.888,427.061 146.606,405.64C143.036,382.332 138.884,359.128 135.525,335.785C132.866,317.309 130.305,298.82 127.84,280.318C125.888,265.671 123.909,251.061 122.694,236.329C120.434,208.942 118.199,178.288 122.376,149.595C126.377,122.108 136.287,96.408 158.478,77.688C167.055,70.453 183.216,60.357 197.452,60.218Z"/>
            </g>
        </g>
    </g>
</svg>
