<?xml version="1.0" encoding="UTF-8" standalone="no"?>
<!DOCTYPE svg PUBLIC "-//W3C//DTD SVG 1.1//EN" "http://www.w3.org/Graphics/SVG/1.1/DTD/svg11.dtd">
<svg width="100%" height="100%" viewBox="0 0 2500 2500" version="1.1" xmlns="http://www.w3.org/2000/svg" xmlns:xlink="http://www.w3.org/1999/xlink" xml:space="preserve" xmlns:serif="http://www.serif.com/" style="fill-rule:evenodd;clip-rule:evenodd;stroke-linecap:round;stroke-linejoin:round;stroke-miterlimit:1.5;">
    <g transform="matrix(4.16667,0,0,4.16667,0,0)">
        <g transform="matrix(0.949957,0,0,0.949957,-10.2405,-20.0244)">
            <g id="Ebene1">
                <circle cx="326.584" cy="336.883" r="72.303" style="fill:none;stroke:black;stroke-width:5.26px;"/>
            </g>
        </g>
        <g transform="matrix(1.05041,0,0,1.05041,-41.7996,-22.1721)">
            <g id="Vect">
                <path id="_3-3" serif:id="3-3" d="M226.672,47.197C160.766,70.755 120.961,137.995 119.349,207.569C118.9,226.947 118.499,246.812 127.083,264.713C136.049,283.41 152.384,296.266 167.797,309.692C181.181,321.351 193.896,333.451 197.768,352.313C202.172,373.773 195.131,391.031 186.963,407.679C177.647,426.668 166.966,444.99 165.515,466.429C164.047,488.106 177.901,506.144 191.632,521.231C224.228,557.045 277.692,583.595 326.476,572.002C367.771,562.188 378.021,534.543 381.743,502.434C383.42,487.968 383.719,472.57 385.5,457.822C387.14,444.233 390.002,431.199 397,420.263C402.802,411.196 411.263,407.86 420.442,406.084C431.672,403.91 443.943,403.906 455.21,401.523C488.322,394.52 513.776,372.354 524.127,339.876C541.342,285.856 529.677,220.236 481.908,184.798C468.548,174.888 453.377,168.053 438.309,161.081C424.315,154.605 410.405,148.018 398.489,138.102C388.283,129.61 382.172,119.094 376.577,108.271C370.316,96.159 364.685,83.655 356.012,72.452C326.893,34.835 268.037,32.411 226.672,47.197ZM231.799,61.54C267.575,48.752 318.782,49.241 343.967,81.776C352.06,92.231 357.203,103.963 363.046,115.265C369.554,127.856 376.874,139.932 388.746,149.811C401.688,160.58 416.714,167.872 431.912,174.904C446.035,181.44 460.311,187.743 472.832,197.032C515.343,228.569 524.934,287.177 509.614,335.251C500.978,362.348 479.684,380.778 452.059,386.62C440.876,388.985 428.694,388.972 417.548,391.129C404.35,393.683 392.512,399.015 384.17,412.053C368.374,436.739 370.099,470.596 366.612,500.68C363.62,526.485 356.141,549.296 322.954,557.182C279.4,567.533 231.999,542.953 202.897,510.978C191.848,498.838 179.531,484.901 180.712,467.458C182.028,448.026 192.194,431.599 200.638,414.389C210.23,394.838 217.861,374.451 212.689,349.25C208.095,326.869 193.684,312.042 177.802,298.206C163.947,286.137 148.877,274.934 140.818,258.127C133.287,242.422 134.184,224.923 134.577,207.922C136.045,144.565 171.782,82.993 231.799,61.54Z"/>
            </g>
        </g>
    </g>
</svg>
