<?xml version="1.0" encoding="UTF-8" standalone="no"?>
<!DOCTYPE svg PUBLIC "-//W3C//DTD SVG 1.1//EN" "http://www.w3.org/Graphics/SVG/1.1/DTD/svg11.dtd">
<svg width="100%" height="100%" viewBox="0 0 2500 2500" version="1.1" xmlns="http://www.w3.org/2000/svg" xmlns:xlink="http://www.w3.org/1999/xlink" xml:space="preserve" xmlns:serif="http://www.serif.com/" style="fill-rule:evenodd;clip-rule:evenodd;stroke-linecap:round;stroke-linejoin:round;stroke-miterlimit:1.5;">
    <g transform="matrix(4.16667,0,0,4.16667,0,0)">
        <g transform="matrix(0.949957,0,0,0.949957,-10.2405,-20.0244)">
            <g id="Ebene1">
                <circle cx="326.584" cy="336.883" r="72.303" style="fill:none;stroke:black;stroke-width:5.26px;"/>
            </g>
        </g>
        <g transform="matrix(1.24137,0,0,1.24137,-74.8435,-85.9055)">
            <g id="Vect">
                <path id="_3-4" serif:id="3-4" d="M343.658,146.021C342.086,157.851 338.475,173.119 334.576,180.651C328.102,193.159 321.953,199.703 315.185,201.031C310.709,201.909 306.283,200.181 301.809,197.105C296.211,193.256 290.701,187.315 285.261,180.226C274.853,166.661 262.271,150.47 247.369,139.058C231.3,126.752 212.612,119.907 191.148,126.108C182.411,128.633 177.215,134.44 174.486,142.506C172.22,149.205 171.807,157.701 172.478,167.028C173.562,182.108 177.42,199.576 178.682,214.257C179.396,222.562 179.477,229.851 176.877,234.754C174.377,239.469 170.237,241.347 165.387,242.196C158.901,243.33 151.305,242.782 143.529,242.622C124.8,242.235 105.494,244.063 93.927,265.433C80.835,289.622 87.521,322.683 92.921,348.023C109.925,427.817 135.628,436.051 196.927,478.162C223.424,496.365 247.6,515.03 280.127,520.663C307.053,525.326 325.332,514.892 341.62,500.057C356.207,486.772 369.007,469.673 386.275,458.92C404.388,447.64 424.901,440.442 445.181,432.821C466.424,424.839 487.413,416.397 505.497,403.003C526.725,387.281 541.723,363.704 529.729,336.901C522.074,319.797 505.498,307.091 490.372,293.816C477.306,282.349 465.229,270.501 464.393,253.056C463.863,241.983 467.547,232.509 472.226,223.367C477.488,213.083 483.994,203.198 488.464,192.387C499.168,166.501 490.03,131.326 471.565,111.148C429.45,65.128 351.64,85.975 343.658,146.021ZM356.435,147.72C363.012,98.244 427.356,81.93 462.057,119.85C477.444,136.664 485.473,165.89 476.553,187.462C472.216,197.951 465.858,207.518 460.752,217.495C455.062,228.613 450.874,240.208 451.519,253.673C452.528,274.731 466.098,289.661 481.87,303.503C495.58,315.536 511.026,326.663 517.964,342.166C527.224,362.856 514.213,380.509 497.826,392.646C480.701,405.329 460.763,413.197 440.647,420.756C419.567,428.677 398.288,436.254 379.461,447.979C361.531,459.145 348.088,476.734 332.941,490.528C319.496,502.774 304.553,511.812 282.326,507.963C251.708,502.661 229.167,484.673 204.225,467.538C146.426,427.832 121.56,420.575 105.527,345.336C103.033,333.634 100.076,320.151 99.278,306.798C98.535,294.344 99.624,281.987 105.263,271.568C111.336,260.348 120.525,256.888 130.25,255.868C137.8,255.076 145.666,255.638 153.012,255.744C168.326,255.963 181.421,253.695 188.264,240.793C191.781,234.161 192.489,224.387 191.523,213.153C190.266,198.527 186.413,181.127 185.333,166.104C184.802,158.706 184.898,151.949 186.696,146.636C188.031,142.689 190.451,139.726 194.726,138.491C211.873,133.537 226.695,139.46 239.532,149.291C253.536,160.015 265.255,175.326 275.036,188.072C282.766,198.146 290.799,206.075 298.772,210.332C305.058,213.688 311.392,214.909 317.665,213.679C327.103,211.828 336.996,204.016 346.023,186.576C350.403,178.113 354.668,161.012 356.435,147.72Z"/>
            </g>
        </g>
    </g>
</svg>
