<?xml version="1.0" encoding="UTF-8" standalone="no"?>
<!DOCTYPE svg PUBLIC "-//W3C//DTD SVG 1.1//EN" "http://www.w3.org/Graphics/SVG/1.1/DTD/svg11.dtd">
<svg width="100%" height="100%" viewBox="0 0 2500 2500" version="1.1" xmlns="http://www.w3.org/2000/svg" xmlns:xlink="http://www.w3.org/1999/xlink" xml:space="preserve" xmlns:serif="http://www.serif.com/" style="fill-rule:evenodd;clip-rule:evenodd;stroke-linecap:round;stroke-linejoin:round;stroke-miterlimit:1.5;">
    <g transform="matrix(4.16667,0,0,4.16667,0,0)">
        <g transform="matrix(0.949957,0,0,0.949957,-10.2405,-20.0244)">
            <g id="Ebene1">
                <circle cx="326.584" cy="336.883" r="72.303" style="fill:none;stroke:black;stroke-width:5.26px;"/>
            </g>
        </g>
        <g transform="matrix(1.1009,0,0,1.1009,-18.5887,-44.0149)">
            <g id="Vect">
                <path id="_3-5" serif:id="3-5" d="M253.353,100.003C247.25,106.949 244.83,117.969 243.232,130.832C241.291,146.452 240.313,165.246 229.082,180.041C224.628,185.908 218.042,189.64 210.762,192.719C202.397,196.259 193.113,198.868 184.342,201.946C163.773,209.165 146.257,219.186 143.775,243.535C141.624,264.632 150.984,283.283 160.768,301.843C169.213,317.863 178.07,333.786 176.309,352.085C174.433,371.583 160.566,390.76 151.606,409.971C141.071,432.558 136.601,454.995 156.062,477.482C168.846,492.254 182.774,493.458 197.271,492.302C208.417,491.414 219.933,488.517 231.165,493.594C237.595,496.501 239.374,502.691 240.681,509.19C242.57,518.591 243.202,528.872 246.808,536.741C253.294,550.892 265.42,557.369 279.423,558.884C298.092,560.903 320.275,553.55 333.787,545.895C352.73,535.163 369.854,514.1 381.677,490.287C393.435,466.604 399.93,440.288 398.321,419.228C397.139,403.775 392.623,388.766 389.442,373.704C386.565,360.081 384.787,346.404 388.727,332.2C391.662,321.619 398.116,311.862 405.233,302.443C413.006,292.155 421.605,282.289 428.164,272.457C447.92,242.842 467.387,190.549 467.117,146.603C466.975,123.411 461.316,102.514 448.162,87.811C434.892,72.976 413.909,64.026 382.314,66.008C357.576,67.56 335.702,80.068 312.376,86.925C303.422,89.557 289.987,88.012 278.235,89.267C268.144,90.345 259.189,93.361 253.353,100.003ZM264.271,109.596C268.96,104.259 277.18,103.683 285.555,103.297C296.673,102.784 308.273,103.279 316.475,100.868C338.774,94.314 359.575,81.997 383.224,80.513C409.055,78.893 426.481,85.372 437.33,97.501C448.297,109.759 452.466,127.356 452.584,146.692C452.836,187.799 434.553,236.69 416.074,264.392C402.705,284.432 381.257,304.759 374.722,328.316C370.128,344.875 371.868,360.825 375.222,376.707C378.272,391.148 382.697,405.52 383.829,420.335C385.269,439.172 379.176,462.642 368.659,483.824C358.207,504.878 343.371,523.761 326.623,533.249C315.264,539.685 296.68,546.132 280.986,544.434C272.08,543.471 264.145,539.686 260.02,530.686C256.84,523.748 256.595,514.615 254.929,506.326C252.678,495.129 248.23,485.359 237.151,480.351C225.97,475.296 214.603,475.965 203.392,477.112C190.701,478.411 178.128,480.77 167.051,467.971C152.121,450.72 156.695,433.443 164.777,416.115C174.433,395.413 188.754,374.487 190.776,353.477C192.814,332.295 183.4,313.609 173.625,295.066C165.188,279.062 156.379,263.201 158.233,245.009C160.054,227.141 174.061,220.957 189.155,215.66C198.211,212.481 207.787,209.759 216.425,206.104C226.149,201.99 234.709,196.666 240.658,188.829C251.521,174.519 254.651,157.151 256.615,141.241C257.496,134.107 258.154,127.316 259.411,121.396C260.418,116.654 261.696,112.526 264.271,109.596Z"/>
            </g>
        </g>
    </g>
</svg>
