<?xml version="1.0" encoding="UTF-8" standalone="no"?>
<!DOCTYPE svg PUBLIC "-//W3C//DTD SVG 1.1//EN" "http://www.w3.org/Graphics/SVG/1.1/DTD/svg11.dtd">
<svg width="100%" height="100%" viewBox="0 0 2500 2500" version="1.1" xmlns="http://www.w3.org/2000/svg" xmlns:xlink="http://www.w3.org/1999/xlink" xml:space="preserve" xmlns:serif="http://www.serif.com/" style="fill-rule:evenodd;clip-rule:evenodd;stroke-linecap:round;stroke-linejoin:round;stroke-miterlimit:1.5;">
    <g transform="matrix(4.16667,0,0,4.16667,0,0)">
        <g transform="matrix(0.949957,0,0,0.949957,-10.2405,-20.0244)">
            <g id="Ebene1">
                <circle cx="326.584" cy="336.883" r="72.303" style="fill:none;stroke:black;stroke-width:5.26px;"/>
            </g>
        </g>
        <g transform="matrix(1.21519,0,0,1.21519,-51.6922,-64.0424)">
            <g id="Vect">
                <path id="_3-6" serif:id="3-6" d="M285.693,114.582C278.502,118.018 271.938,122.496 265.013,126.347C258.966,129.709 252.623,132.586 245.051,133.345C236.629,134.189 226.716,133.234 217.105,133.462C205.889,133.727 195.102,135.619 186.683,141.992C180.005,147.047 176.279,155.719 174.605,165.689C172.512,178.152 173.491,192.682 172.916,201.666C171.649,221.474 170.856,242.675 163.345,261.245C158.818,272.438 152.63,282.502 147.506,292.945C141.906,304.356 137.538,316.196 137.163,330.04C136.538,353.099 144.981,366.118 155.78,377.627C165.118,387.58 176.58,396.134 184.014,410.917C190.037,422.894 191.415,436.141 193.143,449.298C195.081,464.059 197.416,478.711 205.158,491.882C212.617,504.57 225.436,513.129 240.329,518.097C261.542,525.174 286.919,524.939 305.126,520.182C323.422,515.401 341.833,505.551 357.746,495.471C400.789,468.208 441.15,416.208 441.691,362.827C441.794,352.677 439.022,343.142 436.082,333.684C433.53,325.473 430.824,317.333 430.665,308.728C430.537,301.806 432.825,295.14 434.81,288.472C437.252,280.267 439.3,272.067 438.234,263.659C437.256,255.947 432.977,249.49 428.562,243.096C425.423,238.551 422.097,234.087 421.705,228.454C420.968,217.862 425.966,207.043 430.558,195.243C435.879,181.569 440.887,166.812 439.453,150.335C437.903,132.534 424.458,108.529 406.686,92.719C394.285,81.687 379.831,74.754 366.116,75.601C354.302,76.331 341.889,81.312 329.909,87.851C313.394,96.866 297.692,108.849 285.693,114.582ZM291.369,126.462C301.587,121.58 314.46,112.307 328.228,104.011C340.844,96.409 354.219,89.528 366.928,88.743C377.501,88.089 388.375,94.052 397.935,102.556C413.102,116.049 425.013,136.285 426.336,151.477C427.851,168.885 420.738,184.012 415.328,198.044C411.125,208.946 407.869,219.293 408.57,229.368C409.131,237.418 413.243,244.083 417.727,250.577C420.935,255.223 424.462,259.711 425.172,265.315C426.007,271.903 424.104,278.286 422.19,284.716C419.819,292.683 417.347,300.7 417.501,308.972C417.683,318.826 420.586,328.189 423.509,337.592C426.044,345.749 428.614,353.939 428.525,362.693C428.028,411.805 390.3,459.266 350.701,484.348C335.896,493.725 318.818,502.995 301.797,507.443C285.697,511.65 263.255,511.865 244.495,505.607C232.738,501.685 222.397,495.227 216.509,485.21C209.682,473.597 207.906,460.599 206.197,447.584C204.277,432.964 202.47,418.31 195.777,405.002C189.213,391.949 179.982,383.151 171.241,374.557C160.051,363.556 149.714,352.935 150.324,330.397C150.645,318.567 154.541,308.496 159.326,298.745C164.587,288.024 170.903,277.673 175.551,266.182C183.584,246.322 184.701,223.691 186.056,202.506C186.609,193.858 185.575,179.867 187.589,167.87C188.654,161.529 190.383,155.705 194.63,152.49C200.899,147.743 209.064,146.822 217.416,146.625C227.372,146.389 237.641,147.321 246.365,146.446C264.226,144.655 276.559,133.538 291.369,126.462Z"/>
            </g>
        </g>
    </g>
</svg>
